ply
format ascii 1.0
element vertex 230
property float x
property float y
property float z
property float nx
property float ny
property float nz
element face 406
property list uchar int vertex_indices
end_header
-120 1764 80.8831 0.00118037 -0.237255 0.971447 
-160 1783 80.8831 -0.333754 0.21343 0.918181 
-120 1764 80.8831 -0.0160651 -0.29535 0.955254 
-150 1770 80.8831 -0.245853 -0.391875 0.886561 
-160 1788 80.8831 -0.203499 0.117549 0.971993 
-120 1764 80.8831 0.150731 -0.260111 0.953741 
-160 1789 80.8831 -0.418051 0.0924404 0.903708 
-150 1774 80.8831 -0.344359 -0.429269 0.834952 
-130 1764 80.8831 -0.00669717 -0.494251 0.869293 
-150 1793 80.8831 -0.483166 0.118999 0.867404 
-120 1767 80.8831 0.237699 -0.2051 0.949438 
-120 1769 80.8831 0.316001 -0.0799837 0.945381 
-160 1775 80.8831 -0.132168 -0.249941 0.959198 
-150 1797 80.8831 -0.415426 0.116095 0.902188 
-150 1802 80.8831 -0.276779 0.0568725 0.959249 
-120 1774 80.8831 0.326283 -0.137885 0.935162 
-130 1800 80.8831 0.175743 0.637258 0.750345 
-140 1802 80.8831 0.212678 0.363144 0.907136 
-130 1799 80.8831 0.120411 0.515013 0.848683 
-110 1778 80.8831 0.395941 -0.232819 0.888272 
-160 1778 80.8831 -0.239437 -0.0107211 0.970853 
-150 1806 80.8831 -0.11684 0.133704 0.98411 
-110 1779 80.8831 0.325957 -0.147162 0.93386 
-110 1783 80.8831 0.314042 -0.0633253 0.947295 
-150 1806 80.8831 -0.0752629 0.425578 0.901787 
-160 1774 80.8831 -0.110895 -0.433755 0.894181 
-160 1783 80.8831 -0.214274 0.15194 0.964884 
-150 1774 80.8831 -0.105563 -0.536493 0.837276 
-140 1806 80.8831 0.191251 0.519539 0.832768 
-140 1803 80.8831 0.203399 0.334257 0.920273 
-140 1769 80.8831 -0.0157731 -0.26329 0.964588 
-140 1769 80.8831 -0.125796 -0.422619 0.897535 
-140 1769 80.8831 -0.147408 -0.329256 0.932664 
-130 1765 80.8831 -0.170354 -0.490322 0.85473 
-110 1788 80.8831 0.392358 -0.0064321 0.91979 
-110 1793 80.8831 0.289761 0.0734061 0.95428 
-120 1797 80.8831 0.184891 0.417825 0.889515 
-120 1797 80.8831 0.128434 0.360444 0.923897 
-120 1798 80.8831 0.0606019 0.313325 0.94771 
-110 1794 80.8831 0.128244 0.273675 0.953234 
-170 1769 79.5068 -0.00098135 -0.00294405 0.999995 
-170 1769 79.5134 -0.00692351 -0.00692351 0.999952 
-160 1769 79.5847 -0.0194749 -0.0297248 0.999368 
-170 1774 79.5183 -0.00492599 -0.00492599 0.999976 
-170 1774 79.5576 -0.0318367 -0.0215668 0.99926 
-160 1774 79.8733 -0.105854 -0.0942215 0.989908 
-170 1778 79.5474 -0.0129597 -0.00697831 0.999892 
-170 1783 79.5754 -0.014983 0.00699205 0.999863 
-170 1778 79.6624 -0.073123 -0.0137768 0.997228 
-160 1778 80.2412 -0.170873 -0.0194956 0.9851 
-170 1783 79.678 -0.0403737 0.0196693 0.998991 
-160 1783 80.05 -0.121546 0.0752426 0.98973 
-100 1769 79.501 0.0151924 -0.0212693 0.999658 
-100 1774 79.594 0.0130623 -0.0170815 0.999769 
-110 1774 79.7793 0.0653399 -0.0353478 0.997237 
-100 1774 79.6506 0.0192056 -0.0151623 0.999701 
-110 1778 79.8284 0.136432 -0.0492991 0.989422 
-100 1778 79.7334 0.0254712 -0.0193581 0.999488 
-100 1778 79.6631 0.0130627 -0.0150724 0.999801 
-110 1783 80.1411 0.10609 -0.0185931 0.994183 
-100 1783 79.7651 0.0440592 -0.00512316 0.999016 
-100 1783 79.7344 0.0109226 -0.00695076 0.999916 
-150 1764 79.6697 -0.0320308 -0.0258313 0.999153 
-150 1764 79.8701 -0.0294967 -0.0928601 0.995242 
-130 1755 79.6658 0.00502372 -0.0231091 0.99972 
-130 1755 79.5984 0.00304971 -0.0376131 0.999288 
-140 1760 79.6816 0.00296137 -0.00888411 0.999956 
-140 1760 79.7236 -0.0110091 -0.0150124 0.999827 
-140 1764 79.6938 -0.00109793 -0.130653 0.991428 
-140 1764 79.8286 -0.076176 -0.134773 0.987944 
-130 1760 79.771 -0.0357729 -0.0791341 0.996222 
-130 1760 79.8811 -0.0122288 -0.13674 0.990532 
-160 1802 79.6467 -0.00494534 -0.00890162 0.999948 
-130 1764 80.5815 -0.098298 -0.202817 0.97427 
-130 1764 80.8181 -0.0346524 -0.213889 0.976243 
-160 1807 79.6763 -0.00497465 -0.0129341 0.999904 
-160 1769 79.6277 -0.0248248 -0.0831092 0.996231 
-160 1769 79.6318 -0.0296132 -0.0976138 0.994784 
-160 1774 80.384 -0.0442229 -0.1996 0.978879 
-160 1811 79.7549 -0.00298473 -0.0149236 0.999884 
-160 1774 80.4768 -0.0380905 -0.251889 0.967006 
-150 1769 79.9387 -0.095748 -0.128846 0.987031 
-150 1769 80.5479 -0.112092 -0.168754 0.979264 
-150 1774 80.751 -0.0711696 -0.182146 0.980693 
-160 1783 80.6917 -0.169041 0.161415 0.972302 
-160 1788 79.6675 -0.0481146 0.0502531 0.997577 
-160 1788 80.0203 -0.132342 0.101343 0.98601 
-160 1793 79.5779 -0.0109011 0.00495505 0.999928 
-160 1793 79.6567 -0.116258 0.0462773 0.99214 
-160 1793 80.5979 -0.245073 0.076664 0.966469 
-160 1797 79.5955 -0.00692359 -0.00494542 0.999964 
-160 1797 79.6526 -0.0594518 0.0114732 0.998165 
-160 1797 80.2424 -0.20139 0.0542667 0.978007 
-160 1802 79.6321 -0.0252184 -0.00706115 0.999657 
-160 1802 79.9695 -0.140185 0.00110382 0.990125 
-130 1802 80.0745 0.0848004 0.19541 0.977049 
-130 1802 79.8293 0.0317936 0.191939 0.980892 
-160 1807 79.7126 -0.0527738 -0.00931302 0.998563 
-160 1807 80.1807 -0.116258 0.0462773 0.99214 
-160 1811 79.7817 -0.0130111 -0.0110094 0.999855 
-160 1811 79.9131 -0.0339595 0.0195524 0.999232 
-150 1807 80.7097 -0.0478405 0.159857 0.98598 
-150 1807 80.6428 0.0196128 0.176515 0.984102 
-150 1811 80.0342 -0.0138579 0.0799494 0.996703 
-150 1811 79.9539 0.0225742 0.0806221 0.996489 
-150 1816 79.915 0.00298473 -0.0149236 0.999884 
-150 1816 79.8413 0.0168794 0.000992907 0.999857 
-140 1807 80.5078 0.0853936 0.164774 0.982628 
-140 1807 79.7271 0.0868752 0.107725 0.990378 
-140 1811 79.7786 0.024194 0.0536476 0.998267 
-140 1811 79.6697 0.0405357 0.0259844 0.99884 
-130 1807 79.4912 0.0441024 0.061313 0.997144 
-130 1807 79.5234 -0.0111406 0.0253196 0.999617 
-130 1811 79.6843 0.00503359 -0.0251679 0.999671 
-130 1811 79.7097 -0.013244 -0.0315819 0.999413 
-120 1755 79.5654 0.00717296 -0.0420131 0.999091 
-120 1755 79.5381 0.0153426 -0.0337536 0.999312 
-110 1750 79.334 0.0110962 -0.0232012 0.999669 
-110 1750 79.2888 0.0110967 -0.0211847 0.999714 
-110 1755 79.4438 0.0152527 -0.0254212 0.99956 
-110 1755 79.3928 0.013114 -0.0211841 0.99969 
-120 1760 79.8274 0.0165935 -0.122792 0.992294 
-120 1760 79.6912 0.0431487 -0.094042 0.994633 
-120 1764 80.29 0.103281 -0.127023 0.986508 
-110 1760 79.5654 0.0347899 -0.0453324 0.998366 
-110 1760 79.48 0.0192431 -0.0192431 0.99963 
-110 1764 79.7437 0.0896253 -0.0497918 0.99473 
-110 1764 79.551 0.0276753 -0.0215252 0.999385 
-110 1769 79.8816 0.140973 -0.0424066 0.989105 
-110 1769 79.6616 0.0386159 -0.0302665 0.998796 
-110 1774 80.1323 0.120023 -0.0827345 0.989318 
-110 1778 80.8494 0.169363 -0.0962565 0.980842 
-100 1769 79.5933 0.0172175 -0.0212686 0.999626 
-170 1788 79.519 -0.0109442 0.00895433 0.9999 
-170 1788 79.5688 -0.0150425 0.0110312 0.999826 
-110 1788 80.0952 0.178983 -0.00570009 0.983836 
-110 1793 80.1931 0.101101 0.0184808 0.994704 
-120 1797 80.5884 0.0895223 0.149204 0.984746 
-120 1802 79.8599 -0.0143187 0.12226 0.992395 
-120 1802 79.9717 0.00313972 0.0722136 0.997384 
-110 1797 80.0454 0.0645274 0.100753 0.992817 
-110 1797 79.803 0.0634776 0.0835231 0.994482 
-110 1802 79.8616 0.0299028 0.0278405 0.999165 
-110 1802 79.8171 0.00493571 -0.00493571 0.999976 
-100 1788 79.7896 0.0418426 -0.00306165 0.99912 
-100 1788 79.7319 0.00890162 -0.00494534 0.999948 
-100 1793 79.8 0.0376128 -0.00508281 0.999279 
-100 1793 79.7585 0.00693712 -0.00891915 0.999936 
-100 1797 79.8196 0.00891926 0.00495514 0.999948 
-100 1797 79.8262 0.00297305 -0.0109012 0.999936 
-120 1807 79.7158 -0.0313293 0.00303186 0.999505 
-120 1807 79.875 -0.0210583 0.00501387 0.999766 
-140 1777 85.5967 -0.183658 -0.186263 0.965182 
-140 1783 85.5967 -0.0334158 0.0030378 0.999437 
-140 1778 85.5967 -0.162361 -0.0124893 0.986652 
-140 1788 85.5967 -0.0713049 0.0223493 0.997204 
-140 1777 85.5967 0.0290289 -0.0763353 0.99666 
-140 1779 85.5967 -0.0648067 0.0244353 0.997599 
-140 1778 85.5967 0.0536476 -0.024194 0.998267 
-130 1783 85.5967 0.0379947 -0.0154033 0.999159 
-140 1793 85.5967 -0.0599737 0.1075 0.992395 
-130 1785 85.5967 0.0498503 -0.0371226 0.998067 
-130 1788 85.5967 0.0732755 -0.0159295 0.997185 
-130 1793 85.5967 0.0641287 0.143415 0.987583 
-140 1793 85.5967 0.0505631 0.245416 0.968098 
-130 1793 85.5967 0.0417666 0.29996 0.953037 
-160 1783 82.6174 -0.328775 0.159532 0.930836 
-150 1774 83.374 -0.30261 -0.44538 0.842653 
-160 1788 81.0259 -0.422752 0.218051 0.879622 
-120 1764 80.9778 0.00130049 -0.427862 0.903843 
-160 1778 81.7729 -0.244269 -0.115026 0.962861 
-150 1783 84.3376 -0.305844 0.0793892 0.948766 
-130 1769 83.6848 -0.0169938 -0.411772 0.911128 
-120 1769 83.2434 0.173922 -0.321408 0.930832 
-120 1769 81.3318 0.404661 -0.124619 0.905936 
-130 1774 84.7656 0.0816709 -0.145587 0.985969 
-150 1788 83.916 -0.33719 0.0919609 0.936934 
-150 1783 84.9309 -0.142037 0.0123024 0.989785 
-120 1774 83.9961 0.31236 -0.119313 0.942441 
-160 1778 83.1982 -0.231366 -0.204306 0.951172 
-120 1774 81.7002 0.425432 -0.150405 0.892405 
-150 1778 84.1018 -0.236625 -0.236625 0.942347 
-130 1778 84.9199 0.122429 -0.0370656 0.991785 
-150 1778 84.8384 -0.185775 -0.157588 0.969873 
-140 1769 80.9873 -0.0410291 -0.652222 0.756917 
-140 1769 81.2104 -0.0946815 -0.604505 0.790955 
-150 1788 84.8184 -0.179733 0.0583239 0.981985 
-120 1778 84.2197 0.184102 -0.0661806 0.980677 
-150 1793 83.2483 -0.37214 0.123124 0.919974 
-120 1778 82.9712 0.362772 -0.177829 0.914753 
-150 1793 84.5564 -0.206891 0.0722283 0.975694 
-140 1774 85.0691 -0.129101 -0.503348 0.854385 
-140 1774 85.4258 0.00671048 -0.500602 0.865652 
-130 1769 83.2449 -0.183271 -0.391075 0.901927 
-150 1797 82.3484 -0.385309 0.151019 0.910346 
-130 1774 84.9849 -0.0187003 -0.307932 0.951224 
-150 1797 84.3569 -0.211336 0.171956 0.962168 
-130 1783 85.0833 0.101712 -0.0480619 0.993652 
-150 1802 81.5605 -0.291753 0.237672 0.926494 
-120 1783 84.4509 0.135033 -0.0588607 0.989091 
-140 1783 85.5571 -0.122787 0.0188053 0.992255 
-150 1802 83.156 -0.224397 0.315871 0.921885 
-140 1788 85.4302 -0.119957 0.034754 0.992171 
-140 1793 85.2368 -0.120024 0.0582975 0.991058 
-120 1783 83.8408 0.273256 -0.083388 0.95832 
-130 1783 85.4956 0.0766535 -0.0334684 0.996496 
-130 1788 85.3435 0.0946254 -0.0250159 0.995199 
-110 1783 81.7634 0.398181 -0.133665 0.907516 
-130 1778 85.3606 0.0776148 -0.0470062 0.995875 
-130 1793 85.3115 0.143792 0.218926 0.965088 
-140 1797 84.8152 -0.065292 0.165011 0.984128 
-120 1788 84.8428 0.15516 0.00111626 0.987889 
-140 1797 84.7295 0.161054 0.439634 0.88362 
-120 1788 83.9048 0.274542 0.100188 0.956342 
-120 1793 84.2949 0.231182 0.3475 0.908735 
-140 1802 83.428 0.0869904 0.429429 0.898901 
-120 1793 82.8943 0.244717 0.350223 0.904133 
-140 1802 81.4084 0.335847 0.538319 0.772929 
-110 1788 82.1284 0.392363 0.00385931 0.919802 
-130 1797 84.1299 0.127848 0.472606 0.871951 
-130 1797 82.8442 0.210471 0.569961 0.794258 
-110 1793 81.6238 0.276609 0.245401 0.929121 
-120 1797 81.3401 0.227367 0.564551 0.793465 
-140 1783 85.7083 0.00296137 -0.00888411 0.999956 
-140 1778 85.697 -0.00495514 -0.00891926 0.999948 
-140 1788 85.7126 -0.00689636 -0.00295558 0.999972 
-140 1793 85.686 -0.00700557 0.0190151 0.999795 
-130 1788 85.6899 0.0189021 0.000994847 0.999821 
-140 1778 85.6399 -0.00491636 -0.000983272 0.999987 
-130 1793 85.6089 0.0174244 0.031774 0.999343 
3 51 84 86 
3 86 85 51 
3 4 84 1 
3 86 84 4 
3 85 86 88 
3 88 87 85 
3 4 88 86 
3 4 6 88 
3 6 89 88 
3 9 89 6 
3 87 88 91 
3 91 90 87 
3 88 89 92 
3 92 91 88 
3 90 91 93 
3 93 72 90 
3 91 92 94 
3 94 93 91 
3 13 89 9 
3 92 89 13 
3 14 92 13 
3 94 92 14 
3 16 95 17 
3 18 95 16 
3 96 95 18 
3 75 93 97 
3 72 93 75 
3 97 94 98 
3 93 94 97 
3 75 97 99 
3 99 79 75 
3 97 98 100 
3 100 99 97 
3 14 98 94 
3 14 21 98 
3 21 101 98 
3 24 101 21 
3 102 101 24 
3 98 101 103 
3 103 100 98 
3 103 102 104 
3 101 102 103 
3 100 103 105 
3 103 104 106 
3 106 105 103 
3 28 102 24 
3 107 102 28 
3 29 107 28 
3 108 107 29 
3 104 107 109 
3 102 107 104 
3 107 108 110 
3 110 109 107 
3 29 17 108 
3 17 111 108 
3 17 95 111 
3 95 96 112 
3 112 111 95 
3 108 111 113 
3 113 110 108 
3 111 112 114 
3 114 113 111 
3 153 223 225 
3 225 155 153 
3 155 225 226 
3 226 160 155 
3 227 225 161 
3 225 159 161 
3 225 223 159 
3 227 161 162 
3 226 227 229 
3 225 227 226 
3 227 162 163 
3 163 229 227 
3 164 160 226 
3 164 226 229 
3 229 165 164 
3 229 163 165 
3 116 117 119 
3 119 118 120 
3 117 118 119 
3 71 115 121 
3 65 115 71 
3 121 116 122 
3 115 116 121 
3 0 2 121 
3 2 71 121 
3 2 74 71 
3 5 122 123 
3 5 121 122 
3 5 0 121 
3 122 119 124 
3 116 119 122 
3 124 120 125 
3 119 120 124 
3 123 124 126 
3 122 124 123 
3 126 125 127 
3 124 125 126 
3 8 74 2 
3 5 123 10 
3 11 10 128 
3 10 126 128 
3 10 123 126 
3 128 127 129 
3 126 127 128 
3 128 130 15 
3 15 11 128 
3 130 129 54 
3 128 129 130 
3 15 131 19 
3 130 131 15 
3 131 54 56 
3 130 54 131 
3 19 131 22 
3 23 56 59 
3 23 22 56 
3 22 131 56 
3 132 129 127 
3 54 132 55 
3 129 132 54 
3 132 52 53 
3 53 55 132 
3 197 199 211 
3 211 206 197 
3 211 204 213 
3 199 204 211 
3 209 211 214 
3 206 211 209 
3 214 213 216 
3 211 213 214 
3 204 207 218 
3 218 213 204 
3 218 23 34 
3 207 23 218 
3 213 218 221 
3 221 216 213 
3 218 34 35 
3 35 221 218 
3 220 214 222 
3 209 214 220 
3 37 216 36 
3 37 214 216 
3 37 222 214 
3 18 220 222 
3 222 38 18 
3 222 37 38 
3 36 216 221 
3 221 39 36 
3 221 35 39 
3 23 135 34 
3 59 135 23 
3 135 136 35 
3 35 34 135 
3 36 137 37 
3 38 96 18 
3 138 96 38 
3 38 37 138 
3 37 139 138 
3 37 137 139 
3 39 137 36 
3 140 137 39 
3 39 141 140 
3 39 35 141 
3 35 136 141 
3 137 140 142 
3 142 139 137 
3 140 141 143 
3 143 142 140 
3 59 60 144 
3 144 135 59 
3 144 61 145 
3 60 61 144 
3 136 144 146 
3 135 144 136 
3 144 145 147 
3 147 146 144 
3 136 146 148 
3 148 141 136 
3 146 147 149 
3 149 148 146 
3 141 148 143 
3 112 138 150 
3 96 138 112 
3 150 139 151 
3 138 139 150 
3 43 41 44 
3 40 41 43 
3 44 42 45 
3 41 42 44 
3 46 44 48 
3 43 44 46 
3 48 45 49 
3 44 45 48 
3 46 48 50 
3 50 47 46 
3 48 49 51 
3 51 50 48 
3 63 66 68 
3 68 67 69 
3 66 67 68 
3 67 64 70 
3 70 65 71 
3 64 65 70 
3 69 70 73 
3 67 70 69 
3 73 71 74 
3 70 71 73 
3 45 76 78 
3 42 76 45 
3 78 77 80 
3 76 77 78 
3 77 62 81 
3 81 63 82 
3 62 63 81 
3 77 81 83 
3 83 80 77 
3 3 81 82 
3 3 7 81 
3 7 83 81 
3 12 45 78 
3 12 20 45 
3 20 49 45 
3 12 80 25 
3 78 80 12 
3 20 51 49 
3 20 26 51 
3 26 84 51 
3 1 84 26 
3 80 83 27 
3 27 25 80 
3 27 83 7 
3 30 31 68 
3 31 63 68 
3 31 82 63 
3 68 69 32 
3 32 30 68 
3 3 82 31 
3 32 73 33 
3 69 73 32 
3 33 74 8 
3 73 74 33 
3 54 55 57 
3 57 56 54 
3 57 53 58 
3 55 53 57 
3 59 57 60 
3 56 57 59 
3 57 58 61 
3 61 60 57 
3 2 0 169 
3 169 0 5 
3 173 2 169 
3 173 8 2 
3 173 172 8 
3 174 173 10 
3 173 5 10 
3 173 169 5 
3 175 173 178 
3 172 173 175 
3 178 174 180 
3 173 174 178 
3 174 10 11 
3 180 11 15 
3 174 11 180 
3 175 178 187 
3 187 182 175 
3 178 180 189 
3 189 187 178 
3 182 187 199 
3 199 197 182 
3 187 189 204 
3 204 199 187 
3 189 15 19 
3 180 15 189 
3 207 189 22 
3 189 19 22 
3 207 204 189 
3 207 22 23 
3 154 152 224 
3 224 156 228 
3 152 156 224 
3 157 154 224 
3 223 153 228 
3 153 157 228 
3 157 224 228 
3 228 156 158 
3 223 158 159 
3 228 158 223 
3 1 166 168 
3 168 4 1 
3 6 4 168 
3 168 171 176 
3 166 171 168 
3 176 177 186 
3 171 177 176 
3 188 6 176 
3 6 168 176 
3 188 9 6 
3 188 186 190 
3 176 186 188 
3 9 188 194 
3 194 13 9 
3 194 190 196 
3 188 190 194 
3 13 194 198 
3 198 14 13 
3 194 196 201 
3 201 198 194 
3 177 200 202 
3 202 186 177 
3 202 200 153 
3 153 155 202 
3 190 202 203 
3 186 202 190 
3 203 202 155 
3 155 160 203 
3 159 205 161 
3 162 197 206 
3 162 161 197 
3 161 205 197 
3 162 209 163 
3 206 209 162 
3 190 203 210 
3 210 196 190 
3 160 210 203 
3 160 212 210 
3 160 164 212 
3 196 210 215 
3 215 201 196 
3 215 212 217 
3 210 212 215 
3 219 212 164 
3 164 165 219 
3 165 163 219 
3 163 209 219 
3 209 220 219 
3 17 212 16 
3 212 219 16 
3 17 217 212 
3 16 219 220 
3 220 18 16 
3 21 14 198 
3 24 198 201 
3 21 198 24 
3 24 201 215 
3 215 28 24 
3 28 215 217 
3 217 29 28 
3 217 17 29 
3 47 50 134 
3 134 133 47 
3 50 51 85 
3 85 134 50 
3 134 85 87 
3 7 3 167 
3 20 12 170 
3 170 25 179 
3 12 25 170 
3 26 20 170 
3 166 1 179 
3 1 170 179 
3 1 26 170 
3 179 27 181 
3 25 27 179 
3 183 181 167 
3 181 7 167 
3 181 27 7 
3 166 181 171 
3 179 181 166 
3 181 183 177 
3 177 171 181 
3 31 30 184 
3 184 32 185 
3 30 32 184 
3 191 31 184 
3 191 167 31 
3 167 3 31 
3 191 185 192 
3 184 185 191 
3 32 33 193 
3 193 185 32 
3 33 8 172 
3 172 193 33 
3 185 193 195 
3 195 192 185 
3 193 172 175 
3 175 195 193 
3 152 167 191 
3 152 183 167 
3 152 154 183 
3 191 192 156 
3 156 152 191 
3 154 177 183 
3 154 157 177 
3 157 200 177 
3 153 200 157 
3 158 156 208 
3 156 195 208 
3 156 192 195 
3 208 175 182 
3 195 175 208 
3 158 205 159 
3 208 205 158 
3 208 182 197 
3 197 205 208 
