ply
format ascii 1.0
element vertex 40
property float x
property float y
property float z
property float nx
property float ny
property float nz
element face 22
property list uchar int vertex_index
end_header
-0.428712994 0.266337007 0.0238000005 0 0 1
-0.5 0.0623763986 0.0238000005 0 0 1
0.490099013 -0.0504950993 0.0238000005 0 0 1
0.472276986 -0.143564001 0.0238000005 0 0 1
0.482178003 -0.266337007 0.0238000005 0 0 1
0.486137986 -0.208911002 0.0238000005 0 0 1
0.5 -0.153465003 0.0238000005 0 0 1
0.498019993 -0.210890993 0.0238000005 0 0 1
-0.428712994 0.266337007 0.0238000005 0.325991005 0.945372999 0
0.490099013 -0.0504950993 0.0238000005 0.325991005 0.945372999 0
-0.428712994 0.266337007 -0.0238000005 0.325991005 0.945372999 0
0.490099013 -0.0504950993 -0.0238000005 0.325991005 0.945372999 0
0.490099013 -0.0504950993 0.0238000005 0.982155025 -0.188071996 0
0.472276986 -0.143564001 0.0238000005 0.982155025 -0.188071996 0
0.490099013 -0.0504950993 -0.0238000005 0.982155025 -0.188071996 0
0.472276986 -0.143564001 -0.0238000005 0.982155025 -0.188071996 0
0.472276986 -0.143564001 0.0238000005 0.336338997 0.94174099 0
0.5 -0.153465003 0.0238000005 0.336338997 0.94174099 0
0.472276986 -0.143564001 -0.0238000005 0.336338997 0.94174099 0
0.5 -0.153465003 -0.0238000005 0.336338997 0.94174099 0
0.5 -0.153465003 0.0238000005 0.970142007 -0.242539003 0
0.486137986 -0.208911002 0.0238000005 0.970142007 -0.242539003 0
0.5 -0.153465003 -0.0238000005 0.970142007 -0.242539003 0
0.486137986 -0.208911002 -0.0238000005 0.970142007 -0.242539003 0
0.486137986 -0.208911002 0.0238000005 0.164398998 0.986393988 0
0.498019993 -0.210890993 0.0238000005 0.164398998 0.986393988 0
0.486137986 -0.208911002 -0.0238000005 0.164398998 0.986393988 0
0.498019993 -0.210890993 -0.0238000005 0.164398998 0.986393988 0
0.498019993 -0.210890993 0.0238000005 0.961522996 -0.274724007 0
0.482178003 -0.266337007 0.0238000005 0.961522996 -0.274724007 0
0.498019993 -0.210890993 -0.0238000005 0.961522996 -0.274724007 0
0.482178003 -0.266337007 -0.0238000005 0.961522996 -0.274724007 0
0.482178003 -0.266337007 0.0238000005 -0.317375004 -0.948300004 0
-0.5 0.0623763986 0.0238000005 -0.317375004 -0.948300004 0
0.482178003 -0.266337007 -0.0238000005 -0.317375004 -0.948300004 0
-0.5 0.0623763986 -0.0238000005 -0.317375004 -0.948300004 0
-0.5 0.0623763986 0.0238000005 -0.944001019 0.329941988 0
-0.428712994 0.266337007 0.0238000005 -0.944001019 0.329941988 0
-0.5 0.0623763986 -0.0238000005 -0.944001019 0.329941988 0
-0.428712994 0.266337007 -0.0238000005 -0.944001019 0.329941988 0
3 0 1 2
3 1 3 2
3 3 1 4
3 3 4 5
3 3 5 6
3 5 4 7
3 8 9 10
3 10 9 11
3 12 13 14
3 14 13 15
3 16 17 18
3 18 17 19
3 20 21 22
3 22 21 23
3 24 25 26
3 26 25 27
3 28 29 30
3 30 29 31
3 32 33 34
3 34 33 35
3 36 37 38
3 38 37 39
