ply
format ascii 1.0
element vertex 60
property float x
property float y
property float z
property uchar red
property uchar green
property uchar blue
property uchar alpha
element face 20
property list uchar uint vertex_indices
end_header
2026.55866 1855.9752 54.57262 219 219 219 255 
2055.41668 1814.0 54.57262 219 219 219 255 
2016.2192 1829.1234 54.57262 219 219 219 255 
2026.55866 1855.9752 54.57262 219 219 219 255 
2066.6822 1842.858 54.57262 219 219 219 255 
2055.41668 1814.0 54.57262 219 219 219 255 
2010.2006000000001 1915.85182 58.576359999999994 219 219 219 255 
2105.108 1872.179 58.576359999999994 219 219 219 255 
2002.3301999999999 1894.55556 58.576359999999994 219 219 219 255 
2010.2006000000001 1915.85182 58.576359999999994 219 219 219 255 
2107.5772 1880.821 58.576359999999994 219 219 219 255 
2105.108 1872.179 58.576359999999994 219 219 219 255 
2105.108 1872.179 58.576359999999994 219 219 219 255 
2106.9598 1859.3704 58.576359999999994 219 219 219 255 
2002.3301999999999 1894.55556 58.576359999999994 219 219 219 255 
2105.108 1872.179 58.576359999999994 219 219 219 255 
2107.4228 1864.463 58.576359999999994 219 219 219 255 
2106.9598 1859.3704 58.576359999999994 219 219 219 255 
2105.108 1872.179 58.576359999999994 219 219 219 255 
2109.2746 1868.9382 58.576359999999994 219 219 219 255 
2107.4228 1864.463 58.576359999999994 219 219 219 255 
2107.4228 1864.463 58.576359999999994 219 219 219 255 
2108.3487999999998 1863.6914 58.576359999999994 219 219 219 255 
2106.9598 1859.3704 58.576359999999994 219 219 219 255 
1980.4166 1917.8580200000001 58.35362000000001 219 219 219 255 
1987.5154 1918.1666599999999 58.35362000000001 219 219 219 255 
1987.3612 1911.53086 58.35362000000001 219 219 219 255 
1980.4166 1917.8580200000001 58.35362000000001 219 219 219 255 
1987.3612 1911.53086 58.35362000000001 219 219 219 255 
1980.4166 1911.22222 58.35362000000001 219 219 219 255 
2018.3796 1978.3518 59.47334000000001 219 219 219 255 
2026.40434 1959.3704 59.47334000000001 219 219 219 255 
2012.6698000000001 1963.8456 59.47334000000001 219 219 219 255 
2018.3796 1978.3518 59.47334000000001 219 219 219 255 
2031.65122 1974.1852 59.47334000000001 219 219 219 255 
2026.40434 1959.3704 59.47334000000001 219 219 219 255 
2098.6266 1999.9568 50.60289999999998 219 219 219 255 
2106.8056 1971.0988 50.60289999999998 219 219 219 255 
2093.997 1972.7962 50.60289999999998 219 219 219 255 
2109.5834 1998.8766 50.60289999999998 219 219 219 255 
2106.8056 1971.0988 50.60289999999998 219 219 219 255 
2098.6266 1999.9568 50.60289999999998 219 219 219 255 
2065.7562 2010.7592 54.59772000000001 219 219 219 255 
2069.7686 1993.784 54.59772000000001 219 219 219 255 
2057.88582 1984.0618 54.59772000000001 219 219 219 255 
2076.713 2007.9814000000001 54.59772000000001 219 219 219 255 
2069.7686 1993.784 54.59772000000001 219 219 219 255 
2065.7562 2010.7592 54.59772000000001 219 219 219 255 
2076.713 2007.9814000000001 54.59772000000001 219 219 219 255 
2072.5461999999998 1993.0124 54.59772000000001 219 219 219 255 
2069.7686 1993.784 54.59772000000001 219 219 219 255 
2069.7686 1993.784 54.59772000000001 219 219 219 255 
2063.5957 1982.2098 54.59772000000001 219 219 219 255 
2057.88582 1984.0618 54.59772000000001 219 219 219 255 
2091.0648 2014.0 53.72544000000002 219 219 219 255 
2094.7686 1991.7778 53.72544000000002 219 219 219 255 
2085.0461999999998 1995.0184 53.72544000000002 219 219 219 255 
2091.0648 2014.0 53.72544000000002 219 219 219 255 
2101.25 2010.9135999999999 53.72544000000002 219 219 219 255 
2094.7686 1991.7778 53.72544000000002 219 219 219 255 
3 0 2 1
3 3 5 4
3 6 8 7
3 9 11 10
3 12 14 13
3 15 17 16
3 18 20 19
3 21 23 22
3 24 26 25
3 27 29 28
3 30 32 31
3 33 35 34
3 36 38 37
3 39 41 40
3 42 44 43
3 45 47 46
3 48 50 49
3 51 53 52
3 54 56 55
3 57 59 58
