ply
format ascii 1.0
element vertex 336
property float x
property float y
property float z
property uchar red
property uchar green
property uchar blue
property uchar alpha
element face 230
property list uchar uint vertex_indices
end_header
10.092591 -8.26003 10.137999 219 219 219 255
9.027778 -7.86651 10.137999 219 219 219 255
7.90895 -13.0054 10.137999 219 219 219 255
10.092591 -8.26003 10.137999 219 219 219 255
7.90895 -13.0054 10.137999 219 219 219 255
8.34105 -13.12886 10.137999 219 219 219 255
7.90895 -13.0054 10.137999 219 219 219 255
9.027778 -7.86651 10.137999 219 219 219 255
7.26852 -13.09799 10.137999 219 219 219 255
7.90895 -13.0054 10.137999 219 219 219 255
7.26852 -13.09799 10.137999 219 219 219 255
7.52315 -13.12114 10.137999 219 219 219 255
7.90895 -13.0054 10.137999 219 219 219 255
7.52315 -13.12114 10.137999 219 219 219 255
7.74691 -13.21373 10.137999 219 219 219 255
7.52315 -13.12114 10.137999 219 219 219 255
7.26852 -13.09799 10.137999 219 219 219 255
7.48457 -13.16744 10.137999 219 219 219 255
10.092591 -8.26003 10.137999 219 219 219 255
8.34105 -13.12886 10.137999 219 219 219 255
10.092591 -8.26003 9.862001 219 219 219 255
10.092591 -8.26003 9.862001 219 219 219 255
8.34105 -13.12886 10.137999 219 219 219 255
8.34105 -13.12886 9.862001 219 219 219 255
8.34105 -13.12886 10.137999 219 219 219 255
7.90895 -13.0054 10.137999 219 219 219 255
8.34105 -13.12886 9.862001 219 219 219 255
8.34105 -13.12886 9.862001 219 219 219 255
7.90895 -13.0054 10.137999 219 219 219 255
7.90895 -13.0054 9.862001 219 219 219 255
7.90895 -13.0054 10.137999 219 219 219 255
7.74691 -13.21373 10.137999 219 219 219 255
7.90895 -13.0054 9.862001 219 219 219 255
7.90895 -13.0054 9.862001 219 219 219 255
7.74691 -13.21373 10.137999 219 219 219 255
7.74691 -13.21373 9.862001 219 219 219 255
7.74691 -13.21373 10.137999 219 219 219 255
7.52315 -13.12114 10.137999 219 219 219 255
7.74691 -13.21373 9.862001 219 219 219 255
7.74691 -13.21373 9.862001 219 219 219 255
7.52315 -13.12114 10.137999 219 219 219 255
7.52315 -13.12114 9.862001 219 219 219 255
7.52315 -13.12114 10.137999 219 219 219 255
7.48457 -13.16744 10.137999 219 219 219 255
7.52315 -13.12114 9.862001 219 219 219 255
7.52315 -13.12114 9.862001 219 219 219 255
7.48457 -13.16744 10.137999 219 219 219 255
7.48457 -13.16744 9.862001 219 219 219 255
7.48457 -13.16744 10.137999 219 219 219 255
7.26852 -13.09799 10.137999 219 219 219 255
7.48457 -13.16744 9.862001 219 219 219 255
7.48457 -13.16744 9.862001 219 219 219 255
7.26852 -13.09799 10.137999 219 219 219 255
7.26852 -13.09799 9.862001 219 219 219 255
7.26852 -13.09799 10.137999 219 219 219 255
9.027778 -7.86651 10.137999 219 219 219 255
7.26852 -13.09799 9.862001 219 219 219 255
7.26852 -13.09799 9.862001 219 219 219 255
9.027778 -7.86651 10.137999 219 219 219 255
9.027778 -7.86651 9.862001 219 219 219 255
9.027778 -7.86651 10.137999 219 219 219 255
10.092591 -8.26003 10.137999 219 219 219 255
9.027778 -7.86651 9.862001 219 219 219 255
9.027778 -7.86651 9.862001 219 219 219 255
10.092591 -8.26003 10.137999 219 219 219 255
10.092591 -8.26003 9.862001 219 219 219 255
7.09876 -9.077933 10.135104 219 219 219 255
5.75617 -8.56096 10.135104 219 219 219 255
5 -10.520834 10.135104 219 219 219 255
7.09876 -9.077933 10.135104 219 219 219 255
5 -10.520834 10.135104 219 219 219 255
6.4429 -11.08411 10.135104 219 219 219 255
7.09876 -9.077933 10.135104 219 219 219 255
6.4429 -11.08411 10.135104 219 219 219 255
7.09876 -9.077933 9.862001 219 219 219 255
7.09876 -9.077933 9.862001 219 219 219 255
6.4429 -11.08411 10.135104 219 219 219 255
6.4429 -11.08411 9.862001 219 219 219 255
6.4429 -11.08411 10.135104 219 219 219 255
5 -10.520834 10.135104 219 219 219 255
6.4429 -11.08411 9.862001 219 219 219 255
6.4429 -11.08411 9.862001 219 219 219 255
5 -10.520834 10.135104 219 219 219 255
5 -10.520834 9.862001 219 219 219 255
5 -10.520834 10.135104 219 219 219 255
5.75617 -8.56096 10.135104 219 219 219 255
5 -10.520834 9.862001 219 219 219 255
5 -10.520834 9.862001 219 219 219 255
5.75617 -8.56096 10.135104 219 219 219 255
5.75617 -8.56096 9.862001 219 219 219 255
5.75617 -8.56096 10.135104 219 219 219 255
7.09876 -9.077933 10.135104 219 219 219 255
5.75617 -8.56096 9.862001 219 219 219 255
5.75617 -8.56096 9.862001 219 219 219 255
7.09876 -9.077933 10.135104 219 219 219 255
7.09876 -9.077933 9.862001 219 219 219 255
13.21759 -8.66898 10.058384 219 219 219 255
12.49228 -8.38349 10.058384 219 219 219 255
12.26852 -9.070217 10.058384 219 219 219 255
13.21759 -8.66898 10.058384 219 219 219 255
12.26852 -9.070217 10.058384 219 219 219 255
13.00926 -9.332561 10.058384 219 219 219 255
13.21759 -8.66898 10.058384 219 219 219 255
13.00926 -9.332561 10.058384 219 219 219 255
13.21759 -8.66898 9.862001 219 219 219 255
13.21759 -8.66898 9.862001 219 219 219 255
13.00926 -9.332561 10.058384 219 219 219 255
13.00926 -9.332561 9.862001 219 219 219 255
13.00926 -9.332561 10.058384 219 219 219 255
12.26852 -9.070217 10.058384 219 219 219 255
13.00926 -9.332561 9.862001 219 219 219 255
13.00926 -9.332561 9.862001 219 219 219 255
12.26852 -9.070217 10.058384 219 219 219 255
12.26852 -9.070217 9.862001 219 219 219 255
12.26852 -9.070217 10.058384 219 219 219 255
12.49228 -8.38349 10.058384 219 219 219 255
12.26852 -9.070217 9.862001 219 219 219 255
12.26852 -9.070217 9.862001 219 219 219 255
12.49228 -8.38349 10.058384 219 219 219 255
12.49228 -8.38349 9.862001 219 219 219 255
12.49228 -8.38349 10.058384 219 219 219 255
13.21759 -8.66898 10.058384 219 219 219 255
12.49228 -8.38349 9.862001 219 219 219 255
12.49228 -8.38349 9.862001 219 219 219 255
13.21759 -8.66898 10.058384 219 219 219 255
13.21759 -8.66898 9.862001 219 219 219 255
14.29784 -12.68133 10.026538 219 219 219 255
12.93981 -12.44985 10.026538 219 219 219 255
12.85494 -13.09028 10.026538 219 219 219 255
14.24383 -13.22917 10.026538 219 219 219 255
14.29784 -12.68133 10.026538 219 219 219 255
12.85494 -13.09028 10.026538 219 219 219 255
14.29784 -12.68133 10.026538 219 219 219 255
14.24383 -13.22917 10.026538 219 219 219 255
14.29784 -12.68133 9.862001 219 219 219 255
14.29784 -12.68133 9.862001 219 219 219 255
14.24383 -13.22917 10.026538 219 219 219 255
14.24383 -13.22917 9.862001 219 219 219 255
14.24383 -13.22917 10.026538 219 219 219 255
12.85494 -13.09028 10.026538 219 219 219 255
14.24383 -13.22917 9.862001 219 219 219 255
14.24383 -13.22917 9.862001 219 219 219 255
12.85494 -13.09028 10.026538 219 219 219 255
12.85494 -13.09028 9.862001 219 219 219 255
12.85494 -13.09028 10.026538 219 219 219 255
12.93981 -12.44985 10.026538 219 219 219 255
12.85494 -13.09028 9.862001 219 219 219 255
12.85494 -13.09028 9.862001 219 219 219 255
12.93981 -12.44985 10.026538 219 219 219 255
12.93981 -12.44985 9.862001 219 219 219 255
12.93981 -12.44985 10.026538 219 219 219 255
14.29784 -12.68133 10.026538 219 219 219 255
12.93981 -12.44985 9.862001 219 219 219 255
12.93981 -12.44985 9.862001 219 219 219 255
14.29784 -12.68133 10.026538 219 219 219 255
14.29784 -12.68133 9.862001 219 219 219 255
10.192901 -6.77083 10.032811 219 219 219 255
9.876543 -7.11806 10.032811 219 219 219 255
10.208333 -7.12577 10.032811 219 219 219 255
10.192901 -6.77083 10.032811 219 219 219 255
9.861111 -6.77083 10.032811 219 219 219 255
9.876543 -7.11806 10.032811 219 219 219 255
10.192901 -6.77083 10.032811 219 219 219 255
10.208333 -7.12577 10.032811 219 219 219 255
10.192901 -6.77083 9.862001 219 219 219 255
10.192901 -6.77083 9.862001 219 219 219 255
10.208333 -7.12577 10.032811 219 219 219 255
10.208333 -7.12577 9.862001 219 219 219 255
10.208333 -7.12577 10.032811 219 219 219 255
9.876543 -7.11806 10.032811 219 219 219 255
10.208333 -7.12577 9.862001 219 219 219 255
10.208333 -7.12577 9.862001 219 219 219 255
9.876543 -7.11806 10.032811 219 219 219 255
9.876543 -7.11806 9.862001 219 219 219 255
9.876543 -7.11806 10.032811 219 219 219 255
9.861111 -6.77083 10.032811 219 219 219 255
9.876543 -7.11806 9.862001 219 219 219 255
9.876543 -7.11806 9.862001 219 219 219 255
9.861111 -6.77083 10.032811 219 219 219 255
9.861111 -6.77083 9.862001 219 219 219 255
9.861111 -6.77083 10.032811 219 219 219 255
10.192901 -6.77083 10.032811 219 219 219 255
9.861111 -6.77083 9.862001 219 219 219 255
9.861111 -6.77083 9.862001 219 219 219 255
10.192901 -6.77083 10.032811 219 219 219 255
10.192901 -6.77083 9.862001 219 219 219 255
7.09876 -9.077933 10.135104 219 219 219 255
5.75617 -8.56096 10.135104 219 219 219 255
5 -10.520834 10.135104 219 219 219 255
7.09876 -9.077933 10.135104 219 219 219 255
5 -10.520834 10.135104 219 219 219 255
6.4429 -11.08411 10.135104 219 219 219 255
7.09876 -9.077933 10.135104 219 219 219 255
5 -10.520834 10.135104 219 219 219 255
5.75617 -8.56096 10.135104 219 219 219 255
7.09876 -9.077933 10.135104 219 219 219 255
6.4429 -11.08411 10.135104 219 219 219 255
5 -10.520834 10.135104 219 219 219 255
7.09876 -9.077933 10.728631 219 219 219 255
5 -10.520834 10.728631 219 219 219 255
5.75617 -8.56096 10.728631 219 219 219 255
7.09876 -9.077933 10.728631 219 219 219 255
6.4429 -11.08411 10.728631 219 219 219 255
5 -10.520834 10.728631 219 219 219 255
10.092591 -8.26003 10.928818 219 219 219 255
7.90895 -13.0054 10.928818 219 219 219 255
9.027778 -7.86651 10.928818 219 219 219 255
10.092591 -8.26003 10.928818 219 219 219 255
8.34105 -13.12886 10.928818 219 219 219 255
7.90895 -13.0054 10.928818 219 219 219 255
7.90895 -13.0054 10.928818 219 219 219 255
7.26852 -13.09799 10.928818 219 219 219 255
9.027778 -7.86651 10.928818 219 219 219 255
7.90895 -13.0054 10.928818 219 219 219 255
7.52315 -13.12114 10.928818 219 219 219 255
7.26852 -13.09799 10.928818 219 219 219 255
7.90895 -13.0054 10.928818 219 219 219 255
7.74691 -13.21373 10.928818 219 219 219 255
7.52315 -13.12114 10.928818 219 219 219 255
7.52315 -13.12114 10.928818 219 219 219 255
7.48457 -13.16744 10.928818 219 219 219 255
7.26852 -13.09799 10.928818 219 219 219 255
10.192901 -6.77083 10.917681 219 219 219 255
10.208333 -7.12577 10.917681 219 219 219 255
9.876543 -7.11806 10.917681 219 219 219 255
10.192901 -6.77083 10.917681 219 219 219 255
9.876543 -7.11806 10.917681 219 219 219 255
9.861111 -6.77083 10.917681 219 219 219 255
13.21759 -8.66898 10.973667 219 219 219 255
12.26852 -9.070217 10.973667 219 219 219 255
12.49228 -8.38349 10.973667 219 219 219 255
13.21759 -8.66898 10.973667 219 219 219 255
13.00926 -9.332561 10.973667 219 219 219 255
12.26852 -9.070217 10.973667 219 219 219 255
14.29784 -12.68133 10.530145 219 219 219 255
12.85494 -13.09028 10.530145 219 219 219 255
12.93981 -12.44985 10.530145 219 219 219 255
14.24383 -13.22917 10.530145 219 219 219 255
12.85494 -13.09028 10.530145 219 219 219 255
14.29784 -12.68133 10.530145 219 219 219 255
14.83796 -11.03781 10.070162 219 219 219 255
13.50309 -10.644291 10.070162 219 219 219 255
13.9892 -11.23843 10.070162 219 219 219 255
14.69907 -11.58565 10.070162 219 219 219 255
14.83796 -11.03781 10.070162 219 219 219 255
13.9892 -11.23843 10.070162 219 219 219 255
14.69907 -11.58565 10.070162 219 219 219 255
13.9892 -11.23843 10.070162 219 219 219 255
13.95062 -11.37731 10.070162 219 219 219 255
13.9892 -11.23843 10.070162 219 219 219 255
13.50309 -10.644291 10.070162 219 219 219 255
13.41049 -10.929785 10.070162 219 219 219 255
14.83796 -11.03781 10.070162 219 219 219 255
14.69907 -11.58565 10.070162 219 219 219 255
14.83796 -11.03781 9.8192215 219 219 219 255
14.83796 -11.03781 9.8192215 219 219 219 255
14.69907 -11.58565 10.070162 219 219 219 255
14.69907 -11.58565 9.8192215 219 219 219 255
14.69907 -11.58565 10.070162 219 219 219 255
13.95062 -11.37731 10.070162 219 219 219 255
14.69907 -11.58565 9.8192215 219 219 219 255
14.69907 -11.58565 9.8192215 219 219 219 255
13.95062 -11.37731 10.070162 219 219 219 255
13.95062 -11.37731 9.8192215 219 219 219 255
13.95062 -11.37731 10.070162 219 219 219 255
13.9892 -11.23843 10.070162 219 219 219 255
13.95062 -11.37731 9.8192215 219 219 219 255
13.95062 -11.37731 9.8192215 219 219 219 255
13.9892 -11.23843 10.070162 219 219 219 255
13.9892 -11.23843 9.8192215 219 219 219 255
13.9892 -11.23843 10.070162 219 219 219 255
13.41049 -10.929785 10.070162 219 219 219 255
13.9892 -11.23843 9.8192215 219 219 219 255
13.9892 -11.23843 9.8192215 219 219 219 255
13.41049 -10.929785 10.070162 219 219 219 255
13.41049 -10.929785 9.8192215 219 219 219 255
13.41049 -10.929785 10.070162 219 219 219 255
13.50309 -10.644291 10.070162 219 219 219 255
13.41049 -10.929785 9.8192215 219 219 219 255
13.41049 -10.929785 9.8192215 219 219 219 255
13.50309 -10.644291 10.070162 219 219 219 255
13.50309 -10.644291 9.8192215 219 219 219 255
13.50309 -10.644291 10.070162 219 219 219 255
14.83796 -11.03781 10.070162 219 219 219 255
13.50309 -10.644291 9.8192215 219 219 219 255
13.50309 -10.644291 9.8192215 219 219 219 255
14.83796 -11.03781 10.070162 219 219 219 255
14.83796 -11.03781 9.8192215 219 219 219 255
15 -12.30324 10.026548 219 219 219 255
14.05092 -12.00231 10.026548 219 219 219 255
13.88889 -12.48843 10.026548 219 219 219 255
15 -12.30324 10.026548 219 219 219 255
13.88889 -12.48843 10.026548 219 219 219 255
14.84568 -12.8125 10.026548 219 219 219 255
15 -12.30324 10.026548 219 219 219 255
14.84568 -12.8125 10.026548 219 219 219 255
15 -12.30324 9.8192215 219 219 219 255
15 -12.30324 9.8192215 219 219 219 255
14.84568 -12.8125 10.026548 219 219 219 255
14.84568 -12.8125 9.8192215 219 219 219 255
14.84568 -12.8125 10.026548 219 219 219 255
13.88889 -12.48843 10.026548 219 219 219 255
14.84568 -12.8125 9.8192215 219 219 219 255
14.84568 -12.8125 9.8192215 219 219 219 255
13.88889 -12.48843 10.026548 219 219 219 255
13.88889 -12.48843 9.8192215 219 219 219 255
13.88889 -12.48843 10.026548 219 219 219 255
14.05092 -12.00231 10.026548 219 219 219 255
13.88889 -12.48843 9.8192215 219 219 219 255
13.88889 -12.48843 9.8192215 219 219 219 255
14.05092 -12.00231 10.026548 219 219 219 255
14.05092 -12.00231 9.8192215 219 219 219 255
14.05092 -12.00231 10.026548 219 219 219 255
15 -12.30324 10.026548 219 219 219 255
14.05092 -12.00231 9.8192215 219 219 219 255
14.05092 -12.00231 9.8192215 219 219 219 255
15 -12.30324 10.026548 219 219 219 255
15 -12.30324 9.8192215 219 219 219 255
14.83796 -11.03781 10.729886 219 219 219 255
13.9892 -11.23843 10.729886 219 219 219 255
13.50309 -10.644291 10.729886 219 219 219 255
14.69907 -11.58565 10.729886 219 219 219 255
13.9892 -11.23843 10.729886 219 219 219 255
14.83796 -11.03781 10.729886 219 219 219 255
14.69907 -11.58565 10.729886 219 219 219 255
13.95062 -11.37731 10.729886 219 219 219 255
13.9892 -11.23843 10.729886 219 219 219 255
13.9892 -11.23843 10.729886 219 219 219 255
13.41049 -10.929785 10.729886 219 219 219 255
13.50309 -10.644291 10.729886 219 219 219 255
15 -12.30324 10.686272 219 219 219 255
13.88889 -12.48843 10.686272 219 219 219 255
14.05092 -12.00231 10.686272 219 219 219 255
15 -12.30324 10.686272 219 219 219 255
14.84568 -12.8125 10.686272 219 219 219 255
13.88889 -12.48843 10.686272 219 219 219 255
3 0 2 1
3 3 5 4
3 6 8 7
3 9 11 10
3 12 14 13
3 15 17 16
3 18 19 20
3 21 22 23
3 24 25 26
3 27 28 29
3 30 31 32
3 33 34 35
3 36 37 38
3 39 40 41
3 42 43 44
3 45 46 47
3 48 49 50
3 51 52 53
3 54 55 56
3 57 58 59
3 60 61 62
3 63 64 65
3 68 192 193
3 67 193 194
3 72 73 74
3 75 76 77
3 78 79 80
3 81 82 83
3 84 85 86
3 87 88 89
3 90 91 92
3 93 94 95
3 96 98 97
3 99 101 100
3 102 103 104
3 105 106 107
3 108 109 110
3 111 112 113
3 114 115 116
3 117 118 119
3 120 121 122
3 123 124 125
3 126 128 127
3 129 131 130
3 132 133 134
3 135 136 137
3 138 139 140
3 141 142 143
3 144 145 146
3 147 148 149
3 150 151 152
3 153 154 155
3 156 158 157
3 159 161 160
3 162 163 164
3 165 166 167
3 168 169 170
3 171 172 173
3 174 175 176
3 177 178 179
3 180 181 182
3 183 184 185
3 68 187 188
3 66 188 186
3 71 190 191
3 69 191 189
3 67 186 187
3 70 189 190
3 192 199 193
3 193 200 194
3 70 196 197
3 71 195 196
3 66 194 192
3 69 197 195
3 196 203 197
3 195 202 196
3 194 198 192
3 197 201 195
3 3 208 5
3 11 215 10
3 4 207 3
3 12 217 14
3 5 209 4
3 13 216 12
3 6 211 8
3 14 218 13
3 7 210 6
3 0 205 2
3 15 220 17
3 8 212 7
3 1 204 0
3 15 221 219
3 9 214 11
3 2 206 1
3 17 221 16
3 10 213 9
3 156 223 158
3 161 227 160
3 159 226 161
3 157 222 156
3 160 225 159
3 158 224 157
3 101 233 100
3 99 232 101
3 97 228 96
3 100 231 99
3 98 230 97
3 96 229 98
3 130 237 129
3 128 236 127
3 126 235 128
3 131 239 130
3 129 238 131
3 127 234 126
3 240 242 241
3 243 245 244
3 246 248 247
3 249 251 250
3 252 253 254
3 255 256 257
3 258 259 260
3 261 262 263
3 264 265 266
3 267 268 269
3 270 271 272
3 273 274 275
3 276 277 278
3 279 280 281
3 282 283 284
3 285 286 287
3 288 290 289
3 291 293 292
3 294 295 296
3 297 298 299
3 300 301 302
3 303 304 305
3 306 307 308
3 309 310 311
3 312 313 314
3 315 316 317
3 291 334 293
3 247 324 246
3 240 319 242
3 292 333 291
3 248 326 247
3 241 318 240
3 293 335 292
3 249 328 251
3 242 320 241
3 250 327 249
3 243 322 245
3 251 329 250
3 288 331 290
3 244 321 243
3 289 330 288
3 245 323 244
3 290 332 289
3 246 325 248
3 68 66 192
3 67 68 193
3 68 67 187
3 66 68 188
3 71 70 190
3 69 71 191
3 67 66 186
3 70 69 189
3 192 198 199
3 193 199 200
3 70 71 196
3 71 69 195
3 66 67 194
3 69 70 197
3 196 202 203
3 195 201 202
3 194 200 198
3 197 203 201
3 3 207 208
3 11 214 215
3 4 209 207
3 12 216 217
3 5 208 209
3 13 218 216
3 6 210 211
3 14 217 218
3 7 212 210
3 0 204 205
3 15 219 220
3 8 211 212
3 1 206 204
3 15 16 221
3 9 213 214
3 2 205 206
3 17 220 221
3 10 215 213
3 156 222 223
3 161 226 227
3 159 225 226
3 157 224 222
3 160 227 225
3 158 223 224
3 101 232 233
3 99 231 232
3 97 230 228
3 100 233 231
3 98 229 230
3 96 228 229
3 130 239 237
3 128 235 236
3 126 234 235
3 131 238 239
3 129 237 238
3 127 236 234
3 291 333 334
3 247 326 324
3 240 318 319
3 292 335 333
3 248 325 326
3 241 320 318
3 293 334 335
3 249 327 328
3 242 319 320
3 250 329 327
3 243 321 322
3 251 328 329
3 288 330 331
3 244 323 321
3 289 332 330
3 245 322 323
3 290 331 332
3 246 324 325
