ply
format ascii 1.0
comment Created in Blender version 5.0.1
element vertex 336
property float x
property float y
property float z
property float nx
property float ny
property float nz
property uchar red
property uchar green
property uchar blue
property uchar alpha
element face 250
property list uchar uint vertex_indices
end_header
1.5600309 5.0925903 0.13799858 -0.3135708 0.75688624 -0.5734078 219 219 219 255
1.1665106 4.0277767 0.13799858 -0.7203652 -0.3946607 -0.57036567 219 219 219 255
6.305401 2.908949 0.13799858 0.799587 -0.26746124 -0.5377036 219 219 219 255
1.5600309 5.0925903 0.13799858 -0.7807743 0.31932923 -0.5370479 219 219 219 255
6.305401 2.908949 0.13799858 0.34305158 -0.74680245 -0.5697383 219 219 219 255
6.4288616 3.3410492 0.13799858 0.7243566 0.3712224 -0.5809488 219 219 219 255
6.305401 2.908949 0.13799858 0.5861549 0.5460453 -0.5985458 219 219 219 255
1.1665106 4.0277767 0.13799858 -0.8130891 0.22445431 -0.5371279 219 219 219 255
6.397991 2.268519 0.13799858 0.5319956 -0.6380685 -0.5566411 219 219 219 255
6.305401 2.908949 0.13799858 -0.18217312 0.8234907 -0.537286 219 219 219 255
6.397991 2.268519 0.13799858 0.022144038 -0.8427655 -0.5378254 219 219 219 255
6.4211407 2.523149 0.13799858 0.7415089 0.07470054 -0.6667716 219 219 219 255
6.305401 2.908949 0.13799858 -0.47455654 0.69265175 -0.54316634 219 219 219 255
6.4211407 2.523149 0.13799858 -0.04225767 -0.8376703 -0.5445391 219 219 219 255
6.513731 2.7469091 0.13799858 0.77852714 0.2060351 -0.592828 219 219 219 255
6.4211407 2.523149 0.13799858 -0.3190471 0.77033806 -0.55207646 219 219 219 255
6.397991 2.268519 0.13799858 -0.16819611 -0.82616997 -0.53772986 219 219 219 255
6.4674416 2.484569 0.13799858 0.7680811 0.22299519 -0.6002705 219 219 219 255
1.5600309 5.0925903 0.13799858 0.33850846 0.9409634 0 219 219 219 255
6.4288616 3.3410492 0.13799858 0.33850843 0.9409633 0 219 219 219 255
1.5600309 5.0925903 -0.13799858 0.33850843 0.9409633 0 219 219 219 255
1.5600309 5.0925903 -0.13799858 0.33850825 0.9409635 0 219 219 219 255
6.4288616 3.3410492 0.13799858 0.33850822 0.94096345 0 219 219 219 255
6.4288616 3.3410492 -0.13799858 0.33850825 0.9409635 0 219 219 219 255
6.4288616 3.3410492 0.13799858 0.9615222 -0.27472728 0 219 219 219 255
6.305401 2.908949 0.13799858 0.9615223 -0.27472728 0 219 219 219 255
6.4288616 3.3410492 -0.13799858 0.9615222 -0.27472728 0 219 219 219 255
6.4288616 3.3410492 -0.13799858 0.9615223 -0.27472728 0 219 219 219 255
6.305401 2.908949 0.13799858 0.9615222 -0.27472728 0 219 219 219 255
6.305401 2.908949 -0.13799858 0.9615222 -0.27472728 0 219 219 219 255
6.305401 2.908949 0.13799858 0.6139538 0.7893419 0 219 219 219 255
6.513731 2.7469091 0.13799858 0.6139539 0.789342 0 219 219 219 255
6.305401 2.908949 -0.13799858 0.6139538 0.7893419 0 219 219 219 255
6.305401 2.908949 -0.13799858 0.6139539 0.789342 0 219 219 219 255
6.513731 2.7469091 0.13799858 0.6139538 0.7893419 0 219 219 219 255
6.513731 2.7469091 -0.13799858 0.6139538 0.7893419 0 219 219 219 255
6.513731 2.7469091 0.13799858 0.92401683 -0.38235185 0 219 219 219 255
6.4211407 2.523149 0.13799858 0.92401683 -0.38235185 0 219 219 219 255
6.513731 2.7469091 -0.13799858 0.92401683 -0.38235185 0 219 219 219 255
6.513731 2.7469091 -0.13799858 0.92401683 -0.38235185 0 219 219 219 255
6.4211407 2.523149 0.13799858 0.92401683 -0.38235185 0 219 219 219 255
6.4211407 2.523149 -0.13799858 0.92401683 -0.38235185 0 219 219 219 255
6.4211407 2.523149 0.13799858 0.6401485 0.7682513 0 219 219 219 255
6.4674416 2.484569 0.13799858 0.6401485 0.7682512 0 219 219 219 255
6.4211407 2.523149 -0.13799858 0.6401485 0.7682512 0 219 219 219 255
6.4211407 2.523149 -0.13799858 0.64013445 0.76826304 0 219 219 219 255
6.4674416 2.484569 0.13799858 0.64013445 0.7682629 0 219 219 219 255
6.4674416 2.484569 -0.13799858 0.64013445 0.76826304 0 219 219 219 255
6.4674416 2.484569 0.13799858 0.95202035 -0.30603486 0 219 219 219 255
6.397991 2.268519 0.13799858 0.95202035 -0.3060349 0 219 219 219 255
6.4674416 2.484569 -0.13799858 0.95202035 -0.3060349 0 219 219 219 255
6.4674416 2.484569 -0.13799858 0.9520226 -0.306028 0 219 219 219 255
6.397991 2.268519 0.13799858 0.9520226 -0.306028 0 219 219 219 255
6.397991 2.268519 -0.13799858 0.95202255 -0.30602798 0 219 219 219 255
6.397991 2.268519 0.13799858 -0.31874287 -0.9478413 0 219 219 219 255
1.1665106 4.0277767 0.13799858 -0.31874284 -0.9478412 0 219 219 219 255
6.397991 2.268519 -0.13799858 -0.31874287 -0.9478413 0 219 219 219 255
6.397991 2.268519 -0.13799858 -0.31874502 -0.9478405 0 219 219 219 255
1.1665106 4.0277767 0.13799858 -0.31874505 -0.9478406 0 219 219 219 255
1.1665106 4.0277767 -0.13799858 -0.31874505 -0.9478406 0 219 219 219 255
1.1665106 4.0277767 0.13799858 -0.9379945 0.3466503 0 219 219 219 255
1.5600309 5.0925903 0.13799858 -0.93799454 0.34665033 0 219 219 219 255
1.1665106 4.0277767 -0.13799858 -0.93799454 0.34665033 0 219 219 219 255
1.1665106 4.0277767 -0.13799858 -0.93799394 0.34665164 0 219 219 219 255
1.5600309 5.0925903 0.13799858 -0.93799394 0.34665164 0 219 219 219 255
1.5600309 5.0925903 -0.13799858 -0.937994 0.34665167 0 219 219 219 255
2.3779345 2.0987597 0.13510418 0 0 1 219 219 219 255
1.86096 0.7561693 0.13510418 0 0 1 219 219 219 255
3.8208342 -9.536743e-07 0.13510418 0 0 1 219 219 219 255
2.3779345 2.0987597 0.13510418 0 0 1 219 219 219 255
3.8208342 -9.536743e-07 0.13510418 0 0 1 219 219 219 255
4.3841114 1.4428992 0.13510418 0 0 1 219 219 219 255
2.3779345 2.0987597 0.13510418 0.31073657 0.95049614 0 219 219 219 255
4.3841114 1.4428992 0.13510418 0.31073654 0.9504961 0 219 219 219 255
2.3779345 2.0987597 -0.13799858 0.31073654 0.9504961 0 219 219 219 255
2.3779345 2.0987597 -0.13799858 0.31073532 0.95049655 0 219 219 219 255
4.3841114 1.4428992 0.13510418 0.3107353 0.9504965 0 219 219 219 255
4.3841114 1.4428992 -0.13799858 0.31073532 0.95049655 0 219 219 219 255
4.3841114 1.4428992 0.13510418 0.9315356 -0.36365002 0 219 219 219 255
3.8208342 -9.536743e-07 0.13510418 0.93153566 -0.36365 0 219 219 219 255
4.3841114 1.4428992 -0.13799858 0.9315357 -0.36365005 0 219 219 219 255
4.3841114 1.4428992 -0.13799858 0.9315353 -0.363651 0 219 219 219 255
3.8208342 -9.536743e-07 0.13510418 0.9315353 -0.363651 0 219 219 219 255
3.8208342 -9.536743e-07 -0.13799858 0.9315353 -0.36365104 0 219 219 219 255
3.8208342 -9.536743e-07 0.13510418 -0.35996473 -0.93296593 0 219 219 219 255
1.86096 0.7561693 0.13510418 -0.35996476 -0.932966 0 219 219 219 255
3.8208342 -9.536743e-07 -0.13799858 -0.35996476 -0.932966 0 219 219 219 255
3.8208342 -9.536743e-07 -0.13799858 -0.35996157 -0.9329671 0 219 219 219 255
1.86096 0.7561693 0.13510418 -0.35996157 -0.9329671 0 219 219 219 255
1.86096 0.7561693 -0.13799858 -0.3599616 -0.9329672 0 219 219 219 255
1.86096 0.7561693 0.13510418 -0.9332083 0.35933614 0 219 219 219 255
2.3779345 2.0987597 0.13510418 -0.9332082 0.3593361 0 219 219 219 255
1.86096 0.7561693 -0.13799858 -0.9332082 0.3593361 0 219 219 219 255
1.86096 0.7561693 -0.13799858 -0.93320715 0.3593388 0 219 219 219 255
2.3779345 2.0987597 0.13510418 -0.93320715 0.35933882 0 219 219 219 255
2.3779345 2.0987597 -0.13799858 -0.9332072 0.35933882 0 219 219 219 255
1.9689808 8.217589 0.05838394 -0.01041013 0.83728486 -0.5466679 219 219 219 255
1.6834908 7.492279 0.05838394 -0.74055994 -0.34899017 -0.574262 219 219 219 255
2.3702183 7.2685194 0.05838394 0.6156647 -0.5654924 -0.5487945 219 219 219 255
1.9689808 8.217589 0.05838394 -0.6185624 0.56202734 -0.5490956 219 219 219 255
2.3702183 7.2685194 0.05838394 0.024908451 -0.83753073 -0.5458222 219 219 219 255
2.6325617 8.009259 0.05838394 0.7316901 0.3653261 -0.5754707 219 219 219 255
1.9689808 8.217589 0.05838394 0.29953507 0.95408535 0 219 219 219 255
2.6325617 8.009259 0.05838394 0.29953507 0.9540853 0 219 219 219 255
1.9689808 8.217589 -0.13799858 0.29953507 0.9540853 0 219 219 219 255
1.9689808 8.217589 -0.13799858 0.29953238 0.9540862 0 219 219 219 255
2.6325617 8.009259 0.05838394 0.29953238 0.9540861 0 219 219 219 255
2.6325617 8.009259 -0.13799858 0.2995324 0.9540862 0 219 219 219 255
2.6325617 8.009259 0.05838394 0.9426281 -0.33384472 0 219 219 219 255
2.3702183 7.2685194 0.05838394 0.9426281 -0.3338447 0 219 219 219 255
2.6325617 8.009259 -0.13799858 0.94262815 -0.3338447 0 219 219 219 255
2.6325617 8.009259 -0.13799858 0.94262785 -0.3338455 0 219 219 219 255
2.3702183 7.2685194 0.05838394 0.94262785 -0.3338455 0 219 219 219 255
2.3702183 7.2685194 -0.13799858 0.94262785 -0.3338455 0 219 219 219 255
2.3702183 7.2685194 0.05838394 -0.30980372 -0.95080054 0 219 219 219 255
1.6834908 7.492279 0.05838394 -0.30980372 -0.95080054 0 219 219 219 255
2.3702183 7.2685194 -0.13799858 -0.30980372 -0.95080054 0 219 219 219 255
2.3702183 7.2685194 -0.13799858 -0.30980372 -0.95080054 0 219 219 219 255
1.6834908 7.492279 0.05838394 -0.30980372 -0.95080054 0 219 219 219 255
1.6834908 7.492279 -0.13799858 -0.30980372 -0.95080054 0 219 219 219 255
1.6834908 7.492279 0.05838394 -0.93051267 0.36625975 0 219 219 219 255
1.9689808 8.217589 0.05838394 -0.93051267 0.36625972 0 219 219 219 255
1.6834908 7.492279 -0.13799858 -0.9305127 0.36625975 0 219 219 219 255
1.6834908 7.492279 -0.13799858 -0.93051296 0.36625898 0 219 219 219 255
1.9689808 8.217589 0.05838394 -0.93051296 0.36625898 0 219 219 219 255
1.9689808 8.217589 -0.13799858 -0.930513 0.36625898 0 219 219 219 255
5.981331 9.297839 0.026537895 -0.045244403 0.8403314 -0.5401816 219 219 219 255
5.749851 7.939809 0.026537895 -0.65835506 -0.48521394 -0.57544434 219 219 219 255
6.3902807 7.8549395 0.026537895 0.6271423 -0.5425608 -0.5588563 219 219 219 255
6.529171 9.243829 0.026537895 0.63159287 0.51752293 -0.5772872 219 219 219 255
5.981331 9.297839 0.026537895 -0.6354619 0.5314335 -0.5601488 219 219 219 255
6.3902807 7.8549395 0.026537895 0.0743417 -0.83885396 -0.53925633 219 219 219 255
5.981331 9.297839 0.026537895 0.09811278 0.9951753 0 219 219 219 255
6.529171 9.243829 0.026537895 0.098112784 0.99517536 0 219 219 219 255
5.981331 9.297839 -0.13799858 0.09811278 0.9951753 0 219 219 219 255
5.981331 9.297839 -0.13799858 0.09811226 0.99517536 0 219 219 219 255
6.529171 9.243829 0.026537895 0.098112285 0.9951754 0 219 219 219 255
6.529171 9.243829 -0.13799858 0.09811226 0.99517536 0 219 219 219 255
6.529171 9.243829 0.026537895 0.9950373 -0.0995034 0 219 219 219 255
6.3902807 7.8549395 0.026537895 0.99503726 -0.09950338 0 219 219 219 255
6.529171 9.243829 -0.13799858 0.99503726 -0.099503376 0 219 219 219 255
6.529171 9.243829 -0.13799858 0.9950369 -0.09950708 0 219 219 219 255
6.3902807 7.8549395 0.026537895 0.99503696 -0.09950709 0 219 219 219 255
6.3902807 7.8549395 -0.13799858 0.9950369 -0.09950708 0 219 219 219 255
6.3902807 7.8549395 0.026537895 -0.13137296 -0.9913331 0 219 219 219 255
5.749851 7.939809 0.026537895 -0.13137296 -0.99133307 0 219 219 219 255
6.3902807 7.8549395 -0.13799858 -0.13137296 -0.99133307 0 219 219 219 255
6.3902807 7.8549395 -0.13799858 -0.13136967 -0.9913335 0 219 219 219 255
5.749851 7.939809 0.026537895 -0.13136967 -0.9913335 0 219 219 219 255
5.749851 7.939809 -0.13799858 -0.13136967 -0.9913335 0 219 219 219 255
5.749851 7.939809 0.026537895 -0.9857824 0.16802764 0 219 219 219 255
5.981331 9.297839 0.026537895 -0.9857824 0.16802762 0 219 219 219 255
5.749851 7.939809 -0.13799858 -0.9857824 0.16802762 0 219 219 219 255
5.749851 7.939809 -0.13799858 -0.98578185 0.1680304 0 219 219 219 255
5.981331 9.297839 0.026537895 -0.98578185 0.1680304 0 219 219 219 255
5.981331 9.297839 -0.13799858 -0.9857818 0.16803038 0 219 219 219 255
0.0708313 5.1928997 0.032811165 -0.78712493 0.2852443 -0.546873 219 219 219 255
0.41806126 4.876542 0.032811165 0.32888836 -0.7685467 -0.5487883 219 219 219 255
0.42577124 5.208332 0.032811165 0.57314533 0.5848856 -0.57394546 219 219 219 255
0.0708313 5.1928997 0.032811165 -0.33796144 0.76505387 -0.54815584 219 219 219 255
0.0708313 4.8611097 0.032811165 -0.5654829 -0.5912053 -0.57506996 219 219 219 255
0.41806126 4.876542 0.032811165 0.7872476 -0.2848596 -0.54689693 219 219 219 255
0.0708313 5.1928997 0.032811165 -0.04343747 0.99905616 0 219 219 219 255
0.42577124 5.208332 0.032811165 -0.04343747 0.9990562 0 219 219 219 255
0.0708313 5.1928997 -0.13799858 -0.04343747 0.99905616 0 219 219 219 255
0.0708313 5.1928997 -0.13799858 -0.043438133 0.9990562 0 219 219 219 255
0.42577124 5.208332 0.032811165 -0.043438133 0.99905616 0 219 219 219 255
0.42577124 5.208332 -0.13799858 -0.043438133 0.99905616 0 219 219 219 255
0.42577124 5.208332 0.032811165 0.99973017 -0.023232985 0 219 219 219 255
0.41806126 4.876542 0.032811165 0.99973017 -0.023232985 0 219 219 219 255
0.42577124 5.208332 -0.13799858 0.9997301 -0.023232985 0 219 219 219 255
0.42577124 5.208332 -0.13799858 0.9997303 -0.023228392 0 219 219 219 255
0.41806126 4.876542 0.032811165 0.9997302 -0.023228392 0 219 219 219 255
0.41806126 4.876542 -0.13799858 0.9997302 -0.02322839 0 219 219 219 255
0.41806126 4.876542 0.032811165 0.04440015 -0.9990139 0 219 219 219 255
0.0708313 4.8611097 0.032811165 0.04440015 -0.99901384 0 219 219 219 255
0.41806126 4.876542 -0.13799858 0.04440015 -0.9990139 0 219 219 219 255
0.41806126 4.876542 -0.13799858 0.04440065 -0.99901384 0 219 219 219 255
0.0708313 4.8611097 0.032811165 0.04440065 -0.9990139 0 219 219 219 255
0.0708313 4.8611097 -0.13799858 0.04440065 -0.9990139 0 219 219 219 255
0.0708313 4.8611097 0.032811165 -1 7.54979e-08 0 219 219 219 255
0.0708313 5.1928997 0.032811165 -1 7.54979e-08 0 219 219 219 255
0.0708313 4.8611097 -0.13799858 -1 7.54979e-08 0 219 219 219 255
0.0708313 4.8611097 -0.13799858 -1 7.54979e-08 0 219 219 219 255
0.0708313 5.1928997 0.032811165 -1 7.54979e-08 0 219 219 219 255
0.0708313 5.1928997 -0.13799858 -1 7.54979e-08 0 219 219 219 255
2.3779345 2.0987597 0.13510418 0 0 1 219 219 219 255
1.86096 0.7561693 0.13510418 0 0 1 219 219 219 255
3.8208342 -9.536743e-07 0.13510418 0 0 1 219 219 219 255
2.3779345 2.0987597 0.13510418 0 0 1 219 219 219 255
3.8208342 -9.536743e-07 0.13510418 0 0 1 219 219 219 255
4.3841114 1.4428992 0.13510418 0 0 1 219 219 219 255
2.3779345 2.0987597 0.13510418 -0.049478568 0.41952646 0.90639377 219 219 219 255
3.8208342 -9.536743e-07 0.13510418 0.22252601 -0.1756796 0.9589677 219 219 219 255
1.86096 0.7561693 0.13510418 -0.5278612 -0.2341661 0.81641215 219 219 219 255
2.3779345 2.0987597 0.13510418 -0.24441294 0.182802 0.9522846 219 219 219 255
4.3841114 1.4428992 0.13510418 0.5119569 0.24186382 0.8242585 219 219 219 255
3.8208342 -9.536743e-07 0.13510418 0.048682824 -0.4211504 0.90568334 219 219 219 255
2.3779345 2.0987597 0.728631 -0.09758729 0.82799846 0.5521734 219 219 219 255
3.8208342 -9.536743e-07 0.728631 0.6591185 -0.5204992 0.5428106 219 219 219 255
1.86096 0.7561693 0.728631 -0.7463414 -0.33104438 0.57739425 219 219 219 255
2.3779345 2.0987597 0.728631 -0.67194736 0.5026881 0.54386723 219 219 219 255
4.3841114 1.4428992 0.728631 0.7401086 0.34960303 0.5744711 219 219 219 255
3.8208342 -9.536743e-07 0.728631 0.09565911 -0.82812595 0.55231935 219 219 219 255
1.5600309 5.0925903 0.92881775 -0.31357872 0.75688684 0.57340276 219 219 219 255
6.305401 2.908949 0.92881775 0.79957396 -0.26750007 0.5377037 219 219 219 255
1.1665106 4.0277767 0.92881775 -0.72035855 -0.39466584 0.5703704 219 219 219 255
1.5600309 5.0925903 0.92881775 -0.7807313 0.31943417 0.53704786 219 219 219 255
6.4288616 3.3410492 0.92881775 0.724361 0.37121758 0.5809464 219 219 219 255
6.305401 2.908949 0.92881775 0.34304488 -0.746804 0.56974036 219 219 219 255
6.305401 2.908949 0.92881775 0.5861428 0.5460476 0.59855556 219 219 219 255
6.397991 2.268519 0.92881775 0.53202087 -0.63805586 0.5566315 219 219 219 255
1.1665106 4.0277767 0.92881775 -0.8130749 0.22450708 0.53712744 219 219 219 255
6.305401 2.908949 0.92881775 -0.18225613 0.8234705 0.53728867 219 219 219 255
6.4211407 2.523149 0.92881775 0.7415135 0.07469343 0.6667673 219 219 219 255
6.397991 2.268519 0.92881775 0.022118658 -0.84275633 0.5378406 219 219 219 255
6.305401 2.908949 0.92881775 -0.47446993 0.6927126 0.54316443 219 219 219 255
6.513731 2.7469091 0.92881775 0.778535 0.20600756 0.5928272 219 219 219 255
6.4211407 2.523149 0.92881775 -0.04234605 -0.8376618 0.54454523 219 219 219 255
6.4211407 2.523149 0.92881775 -0.31909832 0.77032167 0.55206954 219 219 219 255
6.4674416 2.484569 0.92881775 0.7680922 0.22298963 0.6002584 219 219 219 255
6.397991 2.268519 0.92881775 -0.16817702 -0.82616156 0.5377487 219 219 219 255
0.0708313 5.1928997 0.91768074 -0.78710175 0.2853167 0.54686856 219 219 219 255
0.42577124 5.208332 0.91768074 0.5731796 0.5848527 0.57394475 219 219 219 255
0.41806126 4.876542 0.91768074 0.3288239 -0.76857096 0.5487928 219 219 219 255
0.0708313 5.1928997 0.91768074 -0.3378957 0.76507944 0.5481607 219 219 219 255
0.41806126 4.876542 0.91768074 0.78722453 -0.2849314 0.5468926 219 219 219 255
0.0708313 4.8611097 0.91768074 -0.5655156 -0.5911746 0.57506937 219 219 219 255
1.9689808 8.217589 0.97366714 -0.0105141485 0.8372834 0.5466681 219 219 219 255
2.3702183 7.2685194 0.97366714 0.61572313 -0.56543064 0.5487925 219 219 219 255
1.6834908 7.492279 0.97366714 -0.7405424 -0.34902462 0.57426375 219 219 219 255
1.9689808 8.217589 0.97366714 -0.6186185 0.56197023 0.54909074 219 219 219 255
2.6325617 8.009259 0.97366714 0.73167104 0.36535868 0.5754743 219 219 219 255
2.3702183 7.2685194 0.97366714 0.025016574 -0.83752644 0.5458238 219 219 219 255
5.981331 9.297839 0.5301447 -0.045050733 0.84034157 0.5401819 219 219 219 255
6.3902807 7.8549395 0.5301447 0.62712705 -0.5425601 0.5588742 219 219 219 255
5.749851 7.939809 0.5301447 -0.65836906 -0.48521626 0.5754263 219 219 219 255
6.529171 9.243829 0.5301447 0.6316046 0.5175323 0.57726604 219 219 219 255
6.3902807 7.8549395 0.5301447 0.07411138 -0.8388741 0.53925663 219 219 219 255
5.981331 9.297839 0.5301447 -0.6354512 0.5314243 0.56016964 219 219 219 255
4.3378115 9.837959 0.07016182 0.02299278 0.8405012 -0.54132175 219 219 219 255
3.944292 8.503089 0.07016182 -0.46434984 -0.699839 -0.5427749 219 219 219 255
4.538431 8.989199 0.07016182 0.75414336 -0.25536576 -0.6050258 219 219 219 255
4.8856516 9.699069 0.07016182 0.7472786 0.34612927 -0.5672471 219 219 219 255
4.3378115 9.837959 0.07016182 -0.5828479 0.59240544 -0.55618715 219 219 219 255
4.538431 8.989199 0.07016182 -0.09328105 -0.83349293 -0.5445991 219 219 219 255
4.8856516 9.699069 0.07016182 0.29979897 0.7881867 -0.53747773 219 219 219 255
4.538431 8.989199 0.07016182 -0.75050133 -0.33734483 -0.5682837 219 219 219 255
4.677311 8.950619 0.07016182 0.40156558 -0.7108961 -0.5773837 219 219 219 255
4.538431 8.989199 0.07016182 0.5344395 0.650643 -0.5394796 219 219 219 255
3.944292 8.503089 0.07016182 -0.8187491 -0.15406373 -0.5530953 219 219 219 255
4.229786 8.410489 0.07016182 0.30295405 -0.75061154 -0.5871978 219 219 219 255
4.3378115 9.837959 0.07016182 0.2457494 0.9693334 0 219 219 219 255
4.8856516 9.699069 0.07016182 0.24574938 0.9693334 0 219 219 219 255
4.3378115 9.837959 -0.1807785 0.2457494 0.9693334 0 219 219 219 255
4.3378115 9.837959 -0.1807785 0.24574701 0.969334 0 219 219 219 255
4.8856516 9.699069 0.07016182 0.24574703 0.96933407 0 219 219 219 255
4.8856516 9.699069 -0.1807785 0.24574703 0.96933407 0 219 219 219 255
4.8856516 9.699069 0.07016182 0.9633722 -0.26816818 0 219 219 219 255
4.677311 8.950619 0.07016182 0.9633721 -0.26816815 0 219 219 219 255
4.8856516 9.699069 -0.1807785 0.9633722 -0.26816818 0 219 219 219 255
4.8856516 9.699069 -0.1807785 0.9633724 -0.26816714 0 219 219 219 255
4.677311 8.950619 0.07016182 0.96337247 -0.26816717 0 219 219 219 255
4.677311 8.950619 -0.1807785 0.9633724 -0.26816714 0 219 219 219 255
4.677311 8.950619 0.07016182 -0.26765683 -0.9635143 0 219 219 219 255
4.538431 8.989199 0.07016182 -0.26765683 -0.9635143 0 219 219 219 255
4.677311 8.950619 -0.1807785 -0.26765683 -0.9635143 0 219 219 219 255
4.677311 8.950619 -0.1807785 -0.26765838 -0.9635139 0 219 219 219 255
4.538431 8.989199 0.07016182 -0.26765838 -0.9635139 0 219 219 219 255
4.538431 8.989199 -0.1807785 -0.26765838 -0.9635139 0 219 219 219 255
4.538431 8.989199 0.07016182 0.8823538 -0.47058666 0 219 219 219 255
4.229786 8.410489 0.07016182 0.8823538 -0.47058666 0 219 219 219 255
4.538431 8.989199 -0.1807785 0.88235384 -0.47058672 0 219 219 219 255
4.538431 8.989199 -0.1807785 0.8823514 -0.47059134 0 219 219 219 255
4.229786 8.410489 0.07016182 0.8823514 -0.47059137 0 219 219 219 255
4.229786 8.410489 -0.1807785 0.88235134 -0.47059137 0 219 219 219 255
4.229786 8.410489 0.07016182 -0.30852604 -0.9512159 0 219 219 219 255
3.944292 8.503089 0.07016182 -0.30852604 -0.9512159 0 219 219 219 255
4.229786 8.410489 -0.1807785 -0.30852604 -0.9512159 0 219 219 219 255
4.229786 8.410489 -0.1807785 -0.3085275 -0.95121545 0 219 219 219 255
3.944292 8.503089 0.07016182 -0.3085275 -0.95121545 0 219 219 219 255
3.944292 8.503089 -0.1807785 -0.30852747 -0.95121545 0 219 219 219 255
3.944292 8.503089 0.07016182 -0.9591879 0.2827694 0 219 219 219 255
4.3378115 9.837959 0.07016182 -0.959188 0.28276944 0 219 219 219 255
3.944292 8.503089 -0.1807785 -0.9591879 0.2827694 0 219 219 219 255
3.944292 8.503089 -0.1807785 -0.9591883 0.28276816 0 219 219 219 255
4.3378115 9.837959 0.07016182 -0.95918834 0.28276816 0 219 219 219 255
4.3378115 9.837959 -0.1807785 -0.9591883 0.28276813 0 219 219 219 255
5.603241 9.999999 0.026548386 0.059621543 0.8391781 -0.540579 219 219 219 255
5.302311 9.050919 0.026548386 -0.7271064 -0.37026268 -0.5781192 219 219 219 255
5.788431 8.888889 0.026548386 0.53996503 -0.63193923 -0.5559593 219 219 219 255
5.603241 9.999999 0.026548386 -0.54816747 0.6239608 -0.556943 219 219 219 255
5.788431 8.888889 0.026548386 -0.06779952 -0.83835936 -0.5408852 219 219 219 255
6.112501 9.845679 0.026548386 0.7271609 0.3739473 -0.57567406 219 219 219 255
5.603241 9.999999 0.026548386 0.29000676 0.9570247 0 219 219 219 255
6.112501 9.845679 0.026548386 0.29000676 0.9570247 0 219 219 219 255
5.603241 9.999999 -0.1807785 0.29000676 0.9570247 0 219 219 219 255
5.603241 9.999999 -0.1807785 0.29000357 0.95702565 0 219 219 219 255
6.112501 9.845679 0.026548386 0.29000357 0.9570256 0 219 219 219 255
6.112501 9.845679 -0.1807785 0.29000357 0.9570256 0 219 219 219 255
6.112501 9.845679 0.026548386 0.9471453 -0.32080522 0 219 219 219 255
5.788431 8.888889 0.026548386 0.9471452 -0.32080522 0 219 219 219 255
6.112501 9.845679 -0.1807785 0.9471453 -0.3208052 0 219 219 219 255
6.112501 9.845679 -0.1807785 0.947146 -0.32080317 0 219 219 219 255
5.788431 8.888889 0.026548386 0.94714594 -0.32080317 0 219 219 219 255
5.788431 8.888889 -0.1807785 0.947146 -0.32080317 0 219 219 219 255
5.788431 8.888889 0.026548386 -0.31621033 -0.94868916 0 219 219 219 255
5.302311 9.050919 0.026548386 -0.31621033 -0.94868916 0 219 219 219 255
5.788431 8.888889 -0.1807785 -0.31621033 -0.9486892 0 219 219 219 255
5.788431 8.888889 -0.1807785 -0.3162083 -0.9486898 0 219 219 219 255
5.302311 9.050919 0.026548386 -0.31620827 -0.9486898 0 219 219 219 255
5.302311 9.050919 -0.1807785 -0.3162083 -0.9486898 0 219 219 219 255
5.302311 9.050919 0.026548386 -0.95323086 0.30224302 0 219 219 219 255
5.603241 9.999999 0.026548386 -0.9532309 0.30224305 0 219 219 219 255
5.302311 9.050919 -0.1807785 -0.95323086 0.30224302 0 219 219 219 255
5.302311 9.050919 -0.1807785 -0.9532301 0.3022457 0 219 219 219 255
5.603241 9.999999 0.026548386 -0.9532301 0.3022457 0 219 219 219 255
5.603241 9.999999 -0.1807785 -0.95323 0.3022457 0 219 219 219 255
4.3378115 9.837959 0.72988605 0.022998381 0.84049344 0.54133344 219 219 219 255
4.538431 8.989199 0.72988605 0.75414824 -0.25534445 0.60502857 219 219 219 255
3.944292 8.503089 0.72988605 -0.46434203 -0.69985694 0.54275846 219 219 219 255
4.8856516 9.699069 0.72988605 0.74725825 0.34617403 0.56724656 219 219 219 255
4.538431 8.989199 0.72988605 -0.09318686 -0.8335045 0.5445975 219 219 219 255
4.3378115 9.837959 0.72988605 -0.5828874 0.59236425 0.5561896 219 219 219 255
4.8856516 9.699069 0.72988605 0.2993898 0.78834206 0.53747797 219 219 219 255
4.677311 8.950619 0.72988605 0.40157422 -0.71090305 0.577369 219 219 219 255
4.538431 8.989199 0.72988605 -0.75048995 -0.33734676 0.5682975 219 219 219 255
4.538431 8.989199 0.72988605 0.53426677 0.65078384 0.5394807 219 219 219 255
4.229786 8.410489 0.72988605 0.30296424 -0.75062245 0.5871786 219 219 219 255
3.944292 8.503089 0.72988605 -0.81873626 -0.15406749 0.55311334 219 219 219 255
5.603241 9.999999 0.68627167 0.059615713 0.8391813 0.5405745 219 219 219 255
5.788431 8.888889 0.68627167 0.53997827 -0.6319203 0.55596787 219 219 219 255
5.302311 9.050919 0.68627167 -0.7270993 -0.37028298 0.5781152 219 219 219 255
5.603241 9.999999 0.68627167 -0.5481821 0.6239402 0.55695164 219 219 219 255
6.112501 9.845679 0.68627167 0.72715324 0.37397018 0.5756687 219 219 219 255
5.788431 8.888889 0.68627167 -0.06779867 -0.8383612 0.5408826 219 219 219 255
3 0 2 1
3 3 5 4
3 6 8 7
3 9 11 10
3 12 14 13
3 15 17 16
3 18 19 20
3 21 22 23
3 24 25 26
3 27 28 29
3 30 31 32
3 33 34 35
3 36 37 38
3 39 40 41
3 42 43 44
3 45 46 47
3 48 49 50
3 51 52 53
3 54 55 56
3 57 58 59
3 60 61 62
3 63 64 65
3 68 192 193
3 67 193 194
3 72 73 74
3 75 76 77
3 78 79 80
3 81 82 83
3 84 85 86
3 87 88 89
3 90 91 92
3 93 94 95
3 96 98 97
3 99 101 100
3 102 103 104
3 105 106 107
3 108 109 110
3 111 112 113
3 114 115 116
3 117 118 119
3 120 121 122
3 123 124 125
3 126 128 127
3 129 131 130
3 132 133 134
3 135 136 137
3 138 139 140
3 141 142 143
3 144 145 146
3 147 148 149
3 150 151 152
3 153 154 155
3 156 158 157
3 159 161 160
3 162 163 164
3 165 166 167
3 168 169 170
3 171 172 173
3 174 175 176
3 177 178 179
3 180 181 182
3 183 184 185
3 68 187 188
3 66 188 186
3 71 190 191
3 69 191 189
3 67 186 187
3 70 189 190
3 192 199 193
3 193 200 194
3 70 196 197
3 71 195 196
3 66 194 192
3 69 197 195
3 198 200 199
3 201 203 202
3 196 203 197
3 195 202 196
3 194 198 192
3 197 201 195
3 204 206 205
3 207 209 208
3 210 212 211
3 213 215 214
3 216 218 217
3 219 221 220
3 3 208 5
3 11 215 10
3 4 207 3
3 12 217 14
3 5 209 4
3 13 216 12
3 6 211 8
3 14 218 13
3 7 210 6
3 0 205 2
3 15 220 17
3 8 212 7
3 1 204 0
3 15 221 219
3 9 214 11
3 2 206 1
3 17 221 16
3 10 213 9
3 222 224 223
3 225 227 226
3 156 223 158
3 161 227 160
3 159 226 161
3 157 222 156
3 160 225 159
3 158 224 157
3 228 230 229
3 231 233 232
3 101 233 100
3 99 232 101
3 97 228 96
3 100 231 99
3 98 230 97
3 96 229 98
3 234 236 235
3 237 239 238
3 130 237 129
3 128 236 127
3 126 235 128
3 131 239 130
3 129 238 131
3 127 234 126
3 240 242 241
3 243 245 244
3 246 248 247
3 249 251 250
3 252 253 254
3 255 256 257
3 258 259 260
3 261 262 263
3 264 265 266
3 267 268 269
3 270 271 272
3 273 274 275
3 276 277 278
3 279 280 281
3 282 283 284
3 285 286 287
3 288 290 289
3 291 293 292
3 294 295 296
3 297 298 299
3 300 301 302
3 303 304 305
3 306 307 308
3 309 310 311
3 312 313 314
3 315 316 317
3 318 320 319
3 321 323 322
3 324 326 325
3 327 329 328
3 330 332 331
3 333 335 334
3 291 334 293
3 247 324 246
3 240 319 242
3 292 333 291
3 248 326 247
3 241 318 240
3 293 335 292
3 249 328 251
3 242 320 241
3 250 327 249
3 243 322 245
3 251 329 250
3 288 331 290
3 244 321 243
3 289 330 288
3 245 323 244
3 290 332 289
3 246 325 248
3 68 66 192
3 67 68 193
3 68 67 187
3 66 68 188
3 71 70 190
3 69 71 191
3 67 66 186
3 70 69 189
3 192 198 199
3 193 199 200
3 70 71 196
3 71 69 195
3 66 67 194
3 69 70 197
3 196 202 203
3 195 201 202
3 194 200 198
3 197 203 201
3 3 207 208
3 11 214 215
3 4 209 207
3 12 216 217
3 5 208 209
3 13 218 216
3 6 210 211
3 14 217 218
3 7 212 210
3 0 204 205
3 15 219 220
3 8 211 212
3 1 206 204
3 15 16 221
3 9 213 214
3 2 205 206
3 17 220 221
3 10 215 213
3 156 222 223
3 161 226 227
3 159 225 226
3 157 224 222
3 160 227 225
3 158 223 224
3 101 232 233
3 99 231 232
3 97 230 228
3 100 233 231
3 98 229 230
3 96 228 229
3 130 239 237
3 128 235 236
3 126 234 235
3 131 238 239
3 129 237 238
3 127 236 234
3 291 333 334
3 247 326 324
3 240 318 319
3 292 335 333
3 248 325 326
3 241 320 318
3 293 334 335
3 249 327 328
3 242 319 320
3 250 329 327
3 243 321 322
3 251 328 329
3 288 330 331
3 244 323 321
3 289 332 330
3 245 322 323
3 290 331 332
3 246 324 325
