ply
format ascii 1.0
element vertex 60
property float x
property float y
property float z
property uchar red
property uchar green
property uchar blue
property uchar alpha
element face 20
property list uchar uint vertex_indices
end_header
7.09876 -9.077933 10.728631 219 219 219 255
5 -10.520834 10.728631 219 219 219 255
5.75617 -8.56096 10.728631 219 219 219 255
7.09876 -9.077933 10.728631 219 219 219 255
6.4429 -11.08411 10.728631 219 219 219 255
5 -10.520834 10.728631 219 219 219 255
10.092591 -8.26003 10.928818 219 219 219 255
7.90895 -13.0054 10.928818 219 219 219 255
9.027778 -7.86651 10.928818 219 219 219 255
10.092591 -8.26003 10.928818 219 219 219 255
8.34105 -13.12886 10.928818 219 219 219 255
7.90895 -13.0054 10.928818 219 219 219 255
7.90895 -13.0054 10.928818 219 219 219 255
7.26852 -13.09799 10.928818 219 219 219 255
9.027778 -7.86651 10.928818 219 219 219 255
7.90895 -13.0054 10.928818 219 219 219 255
7.52315 -13.12114 10.928818 219 219 219 255
7.26852 -13.09799 10.928818 219 219 219 255
7.90895 -13.0054 10.928818 219 219 219 255
7.74691 -13.21373 10.928818 219 219 219 255
7.52315 -13.12114 10.928818 219 219 219 255
7.52315 -13.12114 10.928818 219 219 219 255
7.48457 -13.16744 10.928818 219 219 219 255
7.26852 -13.09799 10.928818 219 219 219 255
10.192901 -6.77083 10.917681 219 219 219 255
10.208333 -7.12577 10.917681 219 219 219 255
9.876543 -7.11806 10.917681 219 219 219 255
10.192901 -6.77083 10.917681 219 219 219 255
9.876543 -7.11806 10.917681 219 219 219 255
9.861111 -6.77083 10.917681 219 219 219 255
13.21759 -8.66898 10.973667 219 219 219 255
12.26852 -9.070217 10.973667 219 219 219 255
12.49228 -8.38349 10.973667 219 219 219 255
13.21759 -8.66898 10.973667 219 219 219 255
13.00926 -9.332561 10.973667 219 219 219 255
12.26852 -9.070217 10.973667 219 219 219 255
14.29784 -12.68133 10.530145 219 219 219 255
12.85494 -13.09028 10.530145 219 219 219 255
12.93981 -12.44985 10.530145 219 219 219 255
14.24383 -13.22917 10.530145 219 219 219 255
12.85494 -13.09028 10.530145 219 219 219 255
14.29784 -12.68133 10.530145 219 219 219 255
14.83796 -11.03781 10.729886 219 219 219 255
13.9892 -11.23843 10.729886 219 219 219 255
13.50309 -10.644291 10.729886 219 219 219 255
14.69907 -11.58565 10.729886 219 219 219 255
13.9892 -11.23843 10.729886 219 219 219 255
14.83796 -11.03781 10.729886 219 219 219 255
14.69907 -11.58565 10.729886 219 219 219 255
13.95062 -11.37731 10.729886 219 219 219 255
13.9892 -11.23843 10.729886 219 219 219 255
13.9892 -11.23843 10.729886 219 219 219 255
13.41049 -10.929785 10.729886 219 219 219 255
13.50309 -10.644291 10.729886 219 219 219 255
15 -12.30324 10.686272 219 219 219 255
13.88889 -12.48843 10.686272 219 219 219 255
14.05092 -12.00231 10.686272 219 219 219 255
15 -12.30324 10.686272 219 219 219 255
14.84568 -12.8125 10.686272 219 219 219 255
13.88889 -12.48843 10.686272 219 219 219 255
3 0 2 1
3 3 5 4
3 6 8 7
3 9 11 10
3 12 14 13
3 15 17 16
3 18 20 19
3 21 23 22
3 24 26 25
3 27 29 28
3 30 32 31
3 33 35 34
3 36 38 37
3 39 41 40
3 42 44 43
3 45 47 46
3 48 50 49
3 51 53 52
3 54 56 55
3 57 59 58
