ply
format ascii 1.0
element vertex 196
property float x
property float y
property float z
property float nx
property float ny
property float nz
element face 319
property list uchar int vertex_indices
end_header
1380 -2212 262.393 0.20886 -0.0494986 0.976692 
1380 -2212 262.393 0.176998 -0.0386816 0.983451 
1340 -2221 262.393 -0.200998 -0.162095 0.966087 
1390 -2210 262.393 0.179546 -0.0243256 0.983449 
1370 -2233 262.393 -0.0285987 -0.156721 0.987229 
1340 -2219 262.393 -0.271875 -0.0513682 0.960961 
1380 -2233 262.393 -0.0173239 -0.183633 0.982842 
1390 -2207 262.393 0.122031 0.0536026 0.991078 
1380 -2233 262.393 0.0735045 -0.134175 0.988228 
1350 -2223 262.393 -0.121291 -0.344795 0.930809 
1380 -2217 262.393 0.234253 -0.0252272 0.971848 
1340 -2222 262.393 -0.17392 -0.25751 0.950495 
1380 -2231 262.393 0.213095 -0.072674 0.974325 
1350 -2223 262.393 -0.116535 -0.360572 0.925423 
1380 -2229 262.393 0.242926 -0.0953897 0.965343 
1380 -2227 262.393 0.214043 -0.0779462 0.973709 
1380 -2214 262.393 0.223797 -0.0399205 0.973818 
1380 -2226 262.393 0.239124 -0.103578 0.965449 
1350 -2224 262.393 -0.193669 -0.332206 0.92311 
1380 -2224 262.393 0.273493 -0.14275 0.951222 
1350 -2224 262.393 -0.105532 -0.319267 0.94177 
1350 -2226 262.393 -0.211794 -0.322666 0.922513 
1380 -2222 262.393 0.181139 -0.123674 0.97565 
1380 -2222 262.393 0.165885 -0.0529421 0.984723 
1360 -2226 262.393 -0.13774 -0.247933 0.958935 
1350 -2198 262.393 -0.352517 0.078485 0.932508 
1380 -2207 262.393 0.106526 0.135252 0.985068 
1380 -2219 262.393 0.213889 -0.0346524 0.976243 
1380 -2233 262.371 0.00996471 -0.13397 0.990935 
1380 -2233 262.393 0.081047 -0.132729 0.987833 
1380 -2231 262.065 0.133302 -0.0444339 0.990079 
1380 -2229 262.264 0.169675 -0.0605135 0.98364 
1380 -2224 262.163 0.128575 -0.0931871 0.987312 
1340 -2222 262.012 -0.178802 -0.148368 0.972634 
1340 -2222 262.374 -0.145468 -0.270917 0.951548 
1380 -2217 262.181 0.11186 -0.0054301 0.993709 
1380 -2214 262.288 0.129096 -0.0280644 0.991235 
1350 -2224 262.188 -0.114782 -0.286296 0.951241 
1380 -2212 262.373 0.149339 -0.0284999 0.988375 
1390 -2210 262.089 0.120343 -0.0187691 0.992555 
1390 -2207 262.172 0.115481 0.0186969 0.993134 
1350 -2212 264.75 -0.037461 0.00101246 0.999298 
1350 -2210 264.75 -0.0386941 0.0324193 0.998725 
1340 -2217 262.965 -0.288796 0.0110603 0.957327 
1370 -2231 262.762 -0.031143 -0.162636 0.986195 
1340 -2219 262.891 -0.227681 -0.122202 0.966037 
1350 -2203 262.805 -0.331521 0.190448 0.924026 
1350 -2203 263.582 -0.228807 0.167968 0.958871 
1350 -2200 263.178 -0.244851 0.137483 0.959764 
1350 -2203 263.937 -0.124429 0.158924 0.979418 
1340 -2214 262.717 -0.4018 0.0493907 0.914395 
1380 -2231 262.832 0.0237444 -0.143597 0.989351 
1350 -2200 263.637 -0.116596 0.100108 0.988121 
1350 -2198 262.913 -0.273154 0.0541274 0.960446 
1380 -2212 262.908 0.191268 -0.00114532 0.981537 
1350 -2217 263.62 -0.241081 -0.0687018 0.96807 
1380 -2231 262.614 0.127322 -0.103523 0.986444 
1380 -2210 262.875 0.119957 0.034754 0.992171 
1350 -2222 262.859 -0.149375 -0.278563 0.948731 
1370 -2229 263.132 -0.0216 -0.153474 0.987917 
1350 -2222 263.126 -0.114666 -0.280733 0.952912 
1350 -2198 263.48 -0.107273 0.0575888 0.99256 
1350 -2224 262.503 -0.168081 -0.320882 0.932086 
1360 -2203 264.069 -0.014571 0.142348 0.989709 
1350 -2224 263.088 -0.155423 -0.279762 0.947405 
1360 -2200 263.771 0.00975745 0.107332 0.994175 
1360 -2203 264.016 0.0451451 0.151641 0.987404 
1360 -2200 263.657 0.0884796 0.13095 0.987433 
1360 -2198 263.575 -0.00315799 0.0789499 0.996874 
1360 -2198 263.463 0.111638 0.0748088 0.990929 
1380 -2229 263.122 0.0579347 -0.114733 0.991706 
1360 -2203 263.825 0.0737437 0.182546 0.980428 
1380 -2229 262.854 0.180483 -0.0994499 0.978537 
1370 -2226 263.444 0.00328221 -0.12363 0.992323 
1360 -2200 263.349 0.136024 0.163478 0.977125 
1350 -2214 263.839 -0.338173 -0.0808962 0.937601 
1360 -2203 263.58 0.0938026 0.216371 0.971794 
1380 -2226 263.349 0.0792627 -0.104535 0.991358 
1350 -2222 263.423 -0.103202 -0.278254 0.954947 
1380 -2226 263.092 0.184487 -0.107721 0.976914 
1380 -2210 262.54 0.156882 -0.0101578 0.987565 
1350 -2222 263.712 -0.11626 -0.226133 0.967134 
1350 -2219 263.378 -0.177381 -0.159515 0.971129 
1350 -2219 263.69 -0.121954 -0.161374 0.979329 
1380 -2226 262.479 0.256121 -0.132658 0.957499 
1360 -2200 263.005 0.0996447 0.183297 0.977994 
1370 -2224 263.746 0.00325648 -0.116148 0.993227 
1380 -2224 263.597 0.0861464 -0.0999299 0.991258 
1380 -2224 263.354 0.152086 -0.113152 0.981869 
1380 -2207 262.707 0.0967493 0.106075 0.98964 
1370 -2222 264.015 0.0461858 -0.113775 0.992432 
1350 -2217 264.026 -0.153465 -0.148474 0.976936 
1350 -2214 264.479 -0.104608 -0.10931 0.988488 
1380 -2222 263.814 0.0941761 -0.0737523 0.99282 
1350 -2219 263.951 -0.0737437 -0.182546 0.980428 
1380 -2222 263.606 0.127246 -0.0782154 0.988783 
1350 -2212 264.144 -0.416143 0.00913167 0.909253 
1350 -2219 263.994 -0.065292 -0.165011 0.984128 
1350 -2212 264.589 -0.160573 -0.00336866 0.987018 
1370 -2207 264.11 0.0965576 0.137088 0.985842 
1380 -2224 262.832 0.248021 -0.135165 0.959279 
1380 -2207 262.448 0.12 0.0850484 0.989124 
1370 -2207 263.87 0.0947003 0.149842 0.984164 
1350 -2210 263.845 -0.419535 0.191495 0.88731 
1350 -2217 264.237 -0.0651635 -0.115465 0.991172 
1350 -2217 264.503 -0.0674747 -0.110933 0.991535 
1370 -2207 263.635 0.0974999 0.15287 0.983425 
1380 -2207 263.399 0.10656 0.132901 0.985384 
1370 -2205 263.643 0.0985369 0.20331 0.974143 
1350 -2210 264.493 -0.182153 0.149035 0.97191 
1370 -2205 263.388 0.0875749 0.201052 0.975658 
1350 -2207 262.904 -0.4325 0.2595 0.863483 
1370 -2205 263.192 0.0737109 0.184881 0.979993 
1350 -2207 263.987 -0.243213 0.197016 0.949754 
1350 -2212 264.665 -0.0302059 -0.0364554 0.998879 
1370 -2203 263.135 0.0994499 0.180483 0.978537 
1380 -2222 263.198 0.239586 -0.108903 0.964748 
1350 -2210 264.608 -0.0662434 0.0909443 0.99365 
1380 -2205 263.021 0.0743846 0.14995 0.985891 
1380 -2222 262.493 0.268979 -0.0913757 0.958802 
1370 -2203 262.89 0.0832972 0.17263 0.981458 
1380 -2207 263.144 0.100108 0.116596 0.988121 
1380 -2219 263.725 0.122955 -0.0417369 0.991534 
1360 -2226 262.589 -0.0892942 -0.278235 0.956353 
1360 -2226 262.833 -0.0774667 -0.207808 0.975097 
1360 -2229 262.572 -0.0441864 -0.123495 0.991361 
1370 -2203 262.734 0.0453903 0.161776 0.985783 
1360 -2229 262.612 -0.0161461 -0.0914944 0.995675 
1360 -2226 263 -0.0416614 -0.196404 0.979638 
1380 -2219 263.353 0.203311 -0.0344796 0.978507 
1370 -2203 263.372 0.0850836 0.203461 0.975379 
1370 -2200 262.87 0.0483939 0.175871 0.983223 
1360 -2226 263.039 -0.0222456 -0.197869 0.979976 
1350 -2210 264.687 -0.0505657 0.0527175 0.997328 
1380 -2219 262.676 0.265383 -0.0616293 0.962171 
1380 -2217 263.746 0.147635 -0.00111004 0.989041 
1350 -2207 264.373 -0.135427 0.130547 0.982149 
1350 -2207 264.626 -0.072853 0.0795779 0.994163 
1380 -2205 262.842 0.0902958 0.120785 0.988563 
1350 -2205 263.372 -0.314412 0.220515 0.923319 
1380 -2217 263.355 0.200567 -0.00811541 0.979646 
1380 -2217 262.784 0.258246 -0.02815 0.965669 
1370 -2231 262.523 -0.0160548 -0.0824147 0.996469 
1380 -2207 262.917 0.0986504 0.100972 0.989986 
1350 -2205 263.998 -0.195845 0.167312 0.966256 
1350 -2196 262.998 -0.25186 0.0132558 0.967673 
1380 -2205 262.601 0.0994919 0.108856 0.989066 
1350 -2196 263.406 -0.110122 0.0344825 0.99332 
1370 -2231 262.613 -0.0454946 -0.162148 0.985717 
1350 -2205 264.369 -0.0590929 0.140201 0.988358 
1370 -2229 262.671 -0.0497019 -0.144482 0.988258 
1370 -2229 262.895 -0.0700721 -0.160334 0.984572 
1370 -2226 263.117 -0.0342729 -0.197364 0.979731 
1370 -2226 263.284 -0.064634 -0.153947 0.985963 
1370 -2229 263.072 -0.0429018 -0.156533 0.98674 
1370 -2226 263.396 -0.0396278 -0.130206 0.990695 
1360 -2224 263.392 -0.0856907 -0.264746 0.960503 
1360 -2224 263.469 -0.0481025 -0.245446 0.968216 
1360 -2222 263.838 -0.0731744 -0.17154 0.982456 
1360 -2222 264.022 -0.0485784 -0.18128 0.982231 
1360 -2224 263.529 -0.0300619 -0.229673 0.972803 
1360 -2224 263.583 -0.027545 -0.226348 0.973657 
1360 -2222 264.087 -0.0265023 -0.169384 0.985194 
1360 -2222 264.165 -0.0195684 -0.176116 0.984175 
1370 -2224 263.671 -0.00352641 -0.224515 0.974464 
1370 -2224 263.596 -0.0102301 -0.169365 0.9855 
1370 -2222 264.183 -0.00336987 -0.158384 0.987372 
1370 -2222 264.202 0.0239262 -0.153811 0.987811 
1380 -2214 263.733 0.137635 0.0190227 0.9903 
1380 -2214 263.356 0.170873 0.0194956 0.9851 
1380 -2214 262.864 0.237074 -0.0252719 0.971163 
1380 -2212 263.659 0.149305 0.0693623 0.986355 
1380 -2212 263.223 0.139598 0.054224 0.988722 
1380 -2210 263.402 0.124916 0.108261 0.986243 
1380 -2210 263.051 0.123847 0.0729193 0.989618 
1350 -2212 264.75 -0.0602692 -0.0646525 0.996086 
1360 -2216 264.75 -0.0370479 -0.0476331 0.998178 
1360 -2217 264.75 -0.00949661 -0.0749177 0.997145 
1360 -2207 264.75 -0.0183018 0.0893557 0.995832 
1360 -2209 264.75 0.0469118 0.0752771 0.996059 
1360 -2207 264.75 0.0323788 0.117233 0.992576 
1370 -2217 264.75 0.0264569 -0.0582052 0.997954 
1370 -2212 264.75 0.0665608 0.0556492 0.996229 
1360 -2207 264.75 0.00111626 0.15516 0.987889 
1360 -2217 264.75 -0.00773578 -0.131508 0.991285 
1360 -2217 264.719 -0.0539217 -0.129641 0.990094 
1370 -2217 264.375 0.0967902 -0.0206631 0.99509 
1360 -2207 264.607 0.0762945 0.185287 0.979718 
1370 -2217 264.685 0.0507652 -0.0594061 0.996942 
1370 -2212 264.707 0.0757547 0.051601 0.99579 
1370 -2212 264.288 0.109554 0.0818775 0.990603 
1350 -2212 264.754 -0.0408676 -0.0324845 0.998636 
1360 -2217 264.785 0.00101049 -0.0353671 0.999374 
1360 -2212 264.953 -0.0129084 0.00496477 0.999904 
1360 -2212 264.933 0.0169465 -0.00498427 0.999844 
1360 -2207 264.751 0.00101839 0.0437908 0.99904 
3 41 175 191 
3 191 176 193 
3 175 176 191 
3 194 177 192 
3 194 193 177 
3 193 176 177 
3 195 178 193 
3 178 42 193 
3 42 191 193 
3 180 193 179 
3 193 194 179 
3 180 195 193 
3 194 181 182 
3 192 181 194 
3 194 182 179 
3 183 178 195 
3 195 180 183 
3 5 2 45 
3 5 45 43 
3 11 9 58 
3 9 13 60 
3 60 58 9 
3 20 18 62 
3 18 21 64 
3 64 62 18 
3 78 20 62 
3 78 13 20 
3 78 60 13 
3 62 64 81 
3 81 78 62 
3 82 11 58 
3 82 45 11 
3 45 2 11 
3 82 60 83 
3 58 60 82 
3 43 82 55 
3 45 82 43 
3 55 83 91 
3 82 83 55 
3 60 78 94 
3 94 83 60 
3 78 81 97 
3 97 94 78 
3 83 94 104 
3 104 91 83 
3 104 97 105 
3 94 97 104 
3 124 125 128 
3 125 127 132 
3 132 128 125 
3 148 4 44 
3 150 142 151 
3 132 150 152 
3 127 150 132 
3 150 151 153 
3 153 152 150 
3 151 148 154 
3 142 148 151 
3 148 44 59 
3 59 154 148 
3 151 154 155 
3 155 153 151 
3 154 59 73 
3 73 155 154 
3 156 24 123 
3 156 64 24 
3 64 21 24 
3 123 124 157 
3 157 156 123 
3 64 156 158 
3 158 81 64 
3 158 157 159 
3 156 157 158 
3 124 128 160 
3 160 157 124 
3 160 132 161 
3 128 132 160 
3 159 160 162 
3 157 160 159 
3 162 161 163 
3 160 161 162 
3 161 152 164 
3 132 152 161 
3 152 153 165 
3 165 164 152 
3 161 164 166 
3 166 163 161 
3 164 165 167 
3 167 166 164 
3 171 190 168 
3 190 186 168 
3 186 135 168 
3 121 107 173 
3 107 190 173 
3 190 171 173 
3 107 106 190 
3 175 104 105 
3 175 114 104 
3 114 92 104 
3 92 91 104 
3 114 98 92 
3 175 41 114 
3 175 185 176 
3 105 185 175 
3 176 185 177 
3 178 133 42 
3 137 133 178 
3 179 187 180 
3 181 189 182 
3 188 189 181 
3 189 186 190 
3 188 186 189 
3 179 99 187 
3 179 182 99 
3 182 189 99 
3 106 102 190 
3 102 189 190 
3 102 99 189 
3 178 149 137 
3 178 63 149 
3 63 49 149 
3 178 66 63 
3 178 183 66 
3 183 180 66 
3 180 71 66 
3 180 187 71 
3 187 76 71 
3 115 130 108 
3 130 187 108 
3 187 99 108 
3 130 76 187 
3 185 158 159 
3 185 97 158 
3 97 81 158 
3 185 105 97 
3 184 162 163 
3 184 177 162 
3 177 185 162 
3 185 159 162 
3 90 165 86 
3 165 155 86 
3 155 73 86 
3 165 153 155 
3 90 167 165 
3 181 167 188 
3 181 166 167 
3 181 184 166 
3 184 163 166 
3 188 90 186 
3 167 90 188 
3 135 140 169 
3 169 168 135 
3 140 141 170 
3 170 169 140 
3 171 169 172 
3 168 169 171 
3 169 170 54 
3 54 172 169 
3 171 172 174 
3 174 173 171 
3 172 54 57 
3 57 174 172 
3 173 174 143 
3 143 121 173 
3 143 57 89 
3 174 57 143 
3 170 10 16 
3 141 10 170 
3 54 16 0 
3 170 16 54 
3 4 28 6 
3 28 29 8 
3 8 6 28 
3 12 8 29 
3 12 31 14 
3 30 31 12 
3 14 31 15 
3 17 32 19 
3 19 32 22 
3 44 6 51 
3 4 6 44 
3 51 8 56 
3 6 8 51 
3 56 8 12 
3 44 51 70 
3 70 59 44 
3 70 56 72 
3 51 56 70 
3 73 70 77 
3 59 70 73 
3 70 72 79 
3 79 77 70 
3 72 12 14 
3 56 12 72 
3 84 79 15 
3 79 14 15 
3 79 72 14 
3 84 15 17 
3 86 77 87 
3 73 77 86 
3 77 79 88 
3 88 87 77 
3 90 87 93 
3 86 87 90 
3 87 88 95 
3 95 93 87 
3 79 84 100 
3 100 88 79 
3 100 17 19 
3 84 17 100 
3 88 100 116 
3 116 95 88 
3 119 116 22 
3 116 19 22 
3 116 100 19 
3 95 116 129 
3 129 122 95 
3 116 119 134 
3 134 129 116 
3 135 129 140 
3 122 129 135 
3 129 134 141 
3 141 140 129 
3 119 22 23 
3 134 23 27 
3 119 23 134 
3 141 27 10 
3 134 27 141 
3 42 41 191 
3 135 186 122 
3 186 93 122 
3 93 95 122 
3 186 90 93 
3 0 38 1 
3 39 40 7 
3 7 3 39 
3 50 55 75 
3 43 55 50 
3 75 91 92 
3 55 91 75 
3 75 92 98 
3 98 96 75 
3 103 98 109 
3 96 98 103 
3 111 109 113 
3 103 109 111 
3 109 114 117 
3 98 114 109 
3 41 42 114 
3 42 117 114 
3 42 133 117 
3 113 117 136 
3 109 117 113 
3 136 133 137 
3 117 133 136 
3 139 111 113 
3 139 136 144 
3 113 136 139 
3 144 137 149 
3 136 137 144 
3 46 144 47 
3 139 144 46 
3 144 149 49 
3 49 47 144 
3 2 33 34 
3 2 5 33 
3 13 37 20 
3 2 34 11 
3 48 46 47 
3 48 49 52 
3 47 49 48 
3 53 52 61 
3 48 52 53 
3 52 63 65 
3 49 63 52 
3 65 66 67 
3 63 66 65 
3 52 65 68 
3 68 61 52 
3 65 67 69 
3 69 68 65 
3 67 71 74 
3 66 71 67 
3 74 76 85 
3 71 76 74 
3 67 74 69 
3 108 102 110 
3 99 102 108 
3 102 106 112 
3 112 110 102 
3 108 110 120 
3 120 115 108 
3 110 112 126 
3 126 120 110 
3 76 130 131 
3 131 85 76 
3 53 61 147 
3 147 145 53 
3 177 184 192 
3 192 184 181 
3 35 36 16 
3 16 10 35 
3 36 38 0 
3 0 16 36 
3 80 57 1 
3 57 54 1 
3 54 0 1 
3 80 1 3 
3 57 80 101 
3 101 89 57 
3 80 3 7 
3 7 101 80 
3 106 107 118 
3 118 112 106 
3 107 121 138 
3 138 118 107 
3 138 143 146 
3 121 143 138 
3 101 7 26 
